<svg xmlns="http://www.w3.org/2000/svg" xlink="http://www.w3.org/1999/xlink" contentscripttype="application/ecmascript" contentstyletype="text/css" height="1499.5878px" preserveAspectRatio="none" style="width:995px;height:1499px;" version="1.1" viewBox="0 0 995 1499" width="995.0536px" zoomAndPan="magnify"><defs><filter height="300%" id="f14iep4fcyagw8" width="300%" x="-1" y="-1"><feGaussianBlur result="blurOut" stdDeviation="1.6488046166529267"></feGaussianBlur><feColorMatrix in="blurOut" result="blurOut2" type="matrix" values="0 0 0 0 0 0 0 0 0 0 0 0 0 0 0 0 0 0 .4 0"></feColorMatrix><feOffset dx="3.2976092333058533" dy="3.2976092333058533" in="blurOut2" result="blurOut3"></feOffset><feBlend in="SourceGraphic" in2="blurOut3" mode="normal"></feBlend></filter></defs><g><ellipse cx="370.5688" cy="42.8689" fill="#000000" filter="url(#f14iep4fcyagw8)" rx="8.244" ry="8.244" style="stroke: none; stroke-width: 0.8244023083264633;"></ellipse><rect fill="#FEFECE" filter="url(#f14iep4fcyagw8)" height="72.7833" rx="10.305" ry="10.305" style="stroke: #A80036; stroke-width: 1.236603462489695;" width="174.7733" x="407.6669" y="6.5952"></rect><line style="stroke: #A80036; stroke-width: 1.236603462489695;" x1="407.6669" x2="582.4402" y1="30.6019" y2="30.6019"></line><text fill="#000000" font-family="sans-serif" font-size="11.5416" lengthAdjust="spacingAndGlyphs" textLength="24.7321" x="482.6876" y="23.9439">main</text><text fill="#000000" font-family="sans-serif" font-size="9.8928" lengthAdjust="spacingAndGlyphs" textLength="158.2852" x="411.789" y="46.0611">调用分析程序的一个项目入口程序，</text><text fill="#000000" font-family="sans-serif" font-size="9.8928" lengthAdjust="spacingAndGlyphs" textLength="98.9283" x="411.789" y="59.5719">这样将分析程序独立，</text><text fill="#000000" font-family="sans-serif" font-size="9.8928" lengthAdjust="spacingAndGlyphs" textLength="128.6068" x="411.789" y="73.0828">便于将其扩展到后续的使用中</text><rect fill="#FEFECE" filter="url(#f14iep4fcyagw8)" height="72.7833" rx="10.305" ry="10.305" style="stroke: #A80036; stroke-width: 1.236603462489695;" width="434.46" x="277.8236" y="1417.972"></rect><line style="stroke: #A80036; stroke-width: 1.236603462489695;" x1="277.8236" x2="712.2836" y1="1441.9787" y2="1441.9787"></line><text fill="#000000" font-family="sans-serif" font-size="11.5416" lengthAdjust="spacingAndGlyphs" textLength="19.7857" x="485.1608" y="1435.3206">end</text><text fill="#000000" font-family="sans-serif" font-size="9.8928" lengthAdjust="spacingAndGlyphs" textLength="417.972" x="281.9456" y="1457.4378">将调用SemanticAnalysisAndIntermediateCodeGeneration分析程序的结果输出到标准输出中，</text><text fill="#000000" font-family="sans-serif" font-size="9.8928" lengthAdjust="spacingAndGlyphs" textLength="207.7494" x="281.9456" y="1470.9487">即判断所给词法分析是否符合一定的语法结构，</text><text fill="#000000" font-family="sans-serif" font-size="9.8928" lengthAdjust="spacingAndGlyphs" textLength="346.249" x="281.9456" y="1484.4595">并对算术表达式给出计算结果，对于一般的表达式给出四元式形式的中间代码。</text><ellipse cx="749.7939" cy="1454.2457" fill="none" filter="url(#f14iep4fcyagw8)" rx="8.244" ry="8.244" style="stroke: #000000; stroke-width: 0.8244023083264633;"></ellipse><ellipse cx="750.2061" cy="1454.6579" fill="#000000" rx="4.9464" ry="4.9464" style="stroke: none; stroke-width: 0.8244023083264633;"></ellipse><rect fill="#FEFECE" filter="url(#f14iep4fcyagw8)" height="1239.4961" rx="10.305" ry="10.305" style="stroke: #A80036; stroke-width: 1.236603462489695;" width="980.2143" x="4.9464" y="128.6068"></rect><rect fill="#FFFFFF" height="1192.9101" rx="10.305" ry="10.305" style="stroke: #FFFFFF; stroke-width: 0.8244023083264633;" width="975.2679" x="7.4196" y="172.7195"></rect><line style="stroke: #A80036; stroke-width: 1.236603462489695;" x1="4.9464" x2="985.1608" y1="170.2463" y2="170.2463"></line><line style="stroke: #A80036; stroke-width: 1.236603462489695;" x1="4.9464" x2="985.1608" y1="152.6135" y2="152.6135"></line><text fill="#000000" font-family="sans-serif" font-size="11.5416" lengthAdjust="spacingAndGlyphs" textLength="262.1599" x="363.9736" y="145.9554">SemanticAnalysisAndIntermediateCodeGeneration</text><text fill="#000000" font-family="sans-serif" font-size="9.8928" lengthAdjust="spacingAndGlyphs" textLength="447.6505" x="9.0684" y="163.9506">SemanticAnalysisAndIntermediateCodeGeneration分析程序，包括词法分析、语法分析以及语义分析</text><ellipse cx="227.535" cy="204.0468" fill="#000000" filter="url(#f14iep4fcyagw8)" rx="8.244" ry="8.244" style="stroke: none; stroke-width: 0.8244023083264633;"></ellipse><rect fill="#FEFECE" filter="url(#f14iep4fcyagw8)" height="45.7616" rx="10.305" ry="10.305" style="stroke: #A80036; stroke-width: 1.236603462489695;" width="466.6117" x="250.6183" y="180.9636"></rect><line style="stroke: #A80036; stroke-width: 1.236603462489695;" x1="250.6183" x2="717.23" y1="204.9702" y2="204.9702"></line><text fill="#000000" font-family="sans-serif" font-size="11.5416" lengthAdjust="spacingAndGlyphs" textLength="78.3182" x="444.765" y="198.3122">LexicalAnalysis</text><text fill="#000000" font-family="sans-serif" font-size="9.8928" lengthAdjust="spacingAndGlyphs" textLength="450.1237" x="254.7403" y="220.4294">词法分析器，具体的实现为实验一的代码，产生一组分析结果，并给出是否是一个算术表达式Arithmetic</text><rect fill="#FEFECE" filter="url(#f14iep4fcyagw8)" height="45.7616" rx="10.305" ry="10.305" style="stroke: #A80036; stroke-width: 1.236603462489695;" width="225.8862" x="370.981" y="410.9718"></rect><line style="stroke: #A80036; stroke-width: 1.236603462489695;" x1="370.981" x2="596.8673" y1="434.9785" y2="434.9785"></line><text fill="#000000" font-family="sans-serif" font-size="11.5416" lengthAdjust="spacingAndGlyphs" textLength="86.5622" x="440.643" y="428.3205">AnalysisStackInit</text><text fill="#000000" font-family="sans-serif" font-size="9.8928" lengthAdjust="spacingAndGlyphs" textLength="209.3982" x="375.1031" y="450.4376">分析栈初始化，初始化栈，将状态0和符号#压入</text><rect fill="#FEFECE" filter="url(#f14iep4fcyagw8)" height="45.7616" rx="10.305" ry="10.305" style="stroke: #A80036; stroke-width: 1.236603462489695;" width="490.5194" x="238.6645" y="486.8168"></rect><line style="stroke: #A80036; stroke-width: 1.236603462489695;" x1="238.6645" x2="729.1838" y1="510.8235" y2="510.8235"></line><text fill="#000000" font-family="sans-serif" font-size="11.5416" lengthAdjust="spacingAndGlyphs" textLength="19.7857" x="474.0313" y="504.1655">pop</text><text fill="#000000" font-family="sans-serif" font-size="9.8928" lengthAdjust="spacingAndGlyphs" textLength="474.0313" x="242.7865" y="526.2827">X = pop()，将分析栈顶的状态和符号的指针弹出，记为X，并从分析表中获得对应的状态state，根据状态转换</text><rect fill="#FEFECE" filter="url(#f14iep4fcyagw8)" height="45.7616" rx="10.305" ry="10.305" style="stroke: #A80036; stroke-width: 1.236603462489695;" width="105.5235" x="431.1624" y="1309.5703"></rect><line style="stroke: #A80036; stroke-width: 1.236603462489695;" x1="431.1624" x2="536.6859" y1="1333.577" y2="1333.577"></line><text fill="#000000" font-family="sans-serif" font-size="11.5416" lengthAdjust="spacingAndGlyphs" textLength="38.7469" x="464.5507" y="1326.919">release</text><text fill="#000000" font-family="sans-serif" font-size="9.8928" lengthAdjust="spacingAndGlyphs" textLength="89.0354" x="435.2844" y="1349.0362">释放申请的动态资源</text><rect fill="#FEFECE" filter="url(#f14iep4fcyagw8)" height="45.7616" rx="10.305" ry="10.305" style="stroke: #A80036; stroke-width: 1.236603462489695;" width="75.845" x="551.5251" y="1309.5703"></rect><line style="stroke: #A80036; stroke-width: 1.236603462489695;" x1="551.5251" x2="627.3702" y1="1333.577" y2="1333.577"></line><text fill="#000000" font-family="sans-serif" font-size="11.5416" lengthAdjust="spacingAndGlyphs" textLength="31.3273" x="573.784" y="1326.919">return</text><text fill="#000000" font-family="sans-serif" font-size="9.8928" lengthAdjust="spacingAndGlyphs" textLength="59.357" x="555.6472" y="1349.0362">返回分析结果</text><rect fill="#FEFECE" filter="url(#f14iep4fcyagw8)" height="124.4002" rx="10.305" ry="10.305" style="stroke: #A80036; stroke-width: 1.236603462489695;" width="924.155" x="21.8467" y="256.8086"></rect><rect fill="#FFFFFF" height="64.3034" rx="10.305" ry="10.305" style="stroke: #FFFFFF; stroke-width: 0.8244023083264633;" width="919.2086" x="24.3199" y="314.4322"></rect><line style="stroke: #A80036; stroke-width: 1.236603462489695;" x1="21.8467" x2="946.0016" y1="311.959" y2="311.959"></line><line style="stroke: #A80036; stroke-width: 1.236603462489695;" x1="21.8467" x2="946.0016" y1="280.8153" y2="280.8153"></line><text fill="#000000" font-family="sans-serif" font-size="11.5416" lengthAdjust="spacingAndGlyphs" textLength="14.8392" x="476.5045" y="274.1572">init</text><text fill="#000000" font-family="sans-serif" font-size="9.8928" lengthAdjust="spacingAndGlyphs" textLength="108.8211" x="25.9687" y="292.1524">分析程序的初始化工作，</text><text fill="#000000" font-family="sans-serif" font-size="9.8928" lengthAdjust="spacingAndGlyphs" textLength="296.7848" x="25.9687" y="305.6633">创建文法的终结符、非终结符、产生式、SLR分析表以及属性文法等</text><ellipse cx="39.1591" cy="345.7595" fill="#000000" filter="url(#f14iep4fcyagw8)" rx="8.244" ry="8.244" style="stroke: none; stroke-width: 0.8244023083264633;"></ellipse><rect fill="#FEFECE" filter="url(#f14iep4fcyagw8)" height="45.7616" rx="10.305" ry="10.305" style="stroke: #A80036; stroke-width: 1.236603462489695;" width="125.3092" x="62.2424" y="322.6762"></rect><line style="stroke: #A80036; stroke-width: 1.236603462489695;" x1="62.2424" x2="187.5515" y1="346.6829" y2="346.6829"></line><text fill="#000000" font-family="sans-serif" font-size="11.5416" lengthAdjust="spacingAndGlyphs" textLength="14.8392" x="117.4773" y="340.0249">VT</text><text fill="#000000" font-family="sans-serif" font-size="9.8928" lengthAdjust="spacingAndGlyphs" textLength="108.8211" x="66.3644" y="362.1421">定义出文法的所有终结符</text><rect fill="#FEFECE" filter="url(#f14iep4fcyagw8)" height="45.7616" rx="10.305" ry="10.305" style="stroke: #A80036; stroke-width: 1.236603462489695;" width="135.202" x="202.3908" y="322.6762"></rect><line style="stroke: #A80036; stroke-width: 1.236603462489695;" x1="202.3908" x2="337.5927" y1="346.6829" y2="346.6829"></line><text fill="#000000" font-family="sans-serif" font-size="11.5416" lengthAdjust="spacingAndGlyphs" textLength="14.8392" x="262.5721" y="340.0249">VN</text><text fill="#000000" font-family="sans-serif" font-size="9.8928" lengthAdjust="spacingAndGlyphs" textLength="118.7139" x="206.5128" y="362.1421">定义出文法的所有非终结符</text><rect fill="#FEFECE" filter="url(#f14iep4fcyagw8)" height="45.7616" rx="10.305" ry="10.305" style="stroke: #A80036; stroke-width: 1.236603462489695;" width="95.6307" x="352.432" y="322.6762"></rect><line style="stroke: #A80036; stroke-width: 1.236603462489695;" x1="352.432" x2="448.0627" y1="346.6829" y2="346.6829"></line><text fill="#000000" font-family="sans-serif" font-size="11.5416" lengthAdjust="spacingAndGlyphs" textLength="56.0594" x="372.2176" y="340.0249">Production</text><text fill="#000000" font-family="sans-serif" font-size="9.8928" lengthAdjust="spacingAndGlyphs" textLength="79.1426" x="356.554" y="362.1421">构造所有的产生式</text><rect fill="#FEFECE" filter="url(#f14iep4fcyagw8)" height="45.7616" rx="10.305" ry="10.305" style="stroke: #A80036; stroke-width: 1.236603462489695;" width="347.8978" x="462.9019" y="322.6762"></rect><line style="stroke: #A80036; stroke-width: 1.236603462489695;" x1="462.9019" x2="810.7997" y1="346.6829" y2="346.6829"></line><text fill="#000000" font-family="sans-serif" font-size="11.5416" lengthAdjust="spacingAndGlyphs" textLength="72.5474" x="600.5771" y="340.0249">AnalysisTable</text><text fill="#000000" font-family="sans-serif" font-size="9.8928" lengthAdjust="spacingAndGlyphs" textLength="331.4097" x="467.0239" y="362.1421">定义出SLR分析表，插入终结符和非终结符，创建对应的ACTION、GOTO表</text><rect fill="#FEFECE" filter="url(#f14iep4fcyagw8)" height="45.7616" rx="10.305" ry="10.305" style="stroke: #A80036; stroke-width: 1.236603462489695;" width="88.211" x="826.0511" y="322.6762"></rect><line style="stroke: #A80036; stroke-width: 1.236603462489695;" x1="826.0511" x2="914.2622" y1="346.6829" y2="346.6829"></line><text fill="#000000" font-family="sans-serif" font-size="11.5416" lengthAdjust="spacingAndGlyphs" textLength="71.723" x="834.2951" y="340.0249">AnalysisStack</text><text fill="#000000" font-family="sans-serif" font-size="9.8928" lengthAdjust="spacingAndGlyphs" textLength="29.6785" x="830.1731" y="362.1421">分析栈</text><!--MD5=[4861efbe0d8172b785bcd673ff9437a2]
link *start*init to VT--><path d="M47.532,345.7595 C50.9317,345.7595 54.3316,345.7595 57.7314,345.7595 " fill="none" id="*start*init->VT" style="stroke: #A80036; stroke-width: 0.8244023083264633;"></path><polygon fill="#A80036" points="62.0379,345.7595,54.6183,342.4619,57.9159,345.7595,54.6183,349.0571,62.0379,345.7595" style="stroke: #A80036; stroke-width: 0.8244023083264633;"></polygon><!--MD5=[0671dea95fdcb55a05e1419195ea8180]
link VT to VN--><path d="M187.8096,345.7595 C191.1946,345.7595 194.5804,345.7595 197.9662,345.7595 " fill="none" id="VT->VN" style="stroke: #A80036; stroke-width: 0.8244023083264633;"></path><polygon fill="#A80036" points="202.2556,345.7595,194.8359,342.4619,198.1336,345.7595,194.8359,349.0571,202.2556,345.7595" style="stroke: #A80036; stroke-width: 0.8244023083264633;"></polygon><!--MD5=[94c4efbaf5372c41dff4d60d5d236058]
link VN to Production--><path d="M337.6636,345.7595 C341.1781,345.7595 344.6917,345.7595 348.2061,345.7595 " fill="none" id="VN->Production" style="stroke: #A80036; stroke-width: 0.8244023083264633;"></path><polygon fill="#A80036" points="352.3314,345.7595,344.9118,342.4619,348.2094,345.7595,344.9118,349.0571,352.3314,345.7595" style="stroke: #A80036; stroke-width: 0.8244023083264633;"></polygon><!--MD5=[14e1a29620db46fd77035878d4211250]
link Production to AnalysisTable--><path d="M448.0767,345.7595 C451.6101,345.7595 455.1434,345.7595 458.6768,345.7595 " fill="none" id="Production->AnalysisTable" style="stroke: #A80036; stroke-width: 0.8244023083264633;"></path><polygon fill="#A80036" points="462.8244,345.7595,455.4048,342.4619,458.7024,345.7595,455.4048,349.0571,462.8244,345.7595" style="stroke: #A80036; stroke-width: 0.8244023083264633;"></polygon><!--MD5=[5bb86263505a70820aebf1118f7abe06]
link AnalysisTable to AnalysisStack--><path d="M810.9192,345.7595 C814.5227,345.7595 818.1261,345.7595 821.7296,345.7595 " fill="none" id="AnalysisTable->AnalysisStack" style="stroke: #A80036; stroke-width: 0.8244023083264633;"></path><polygon fill="#A80036" points="825.9596,345.7595,818.54,342.4619,821.8376,345.7595,818.54,349.0571,825.9596,345.7595" style="stroke: #A80036; stroke-width: 0.8244023083264633;"></polygon><rect fill="#FEFECE" filter="url(#f14iep4fcyagw8)" height="716.8251" rx="10.305" ry="10.305" style="stroke: #A80036; stroke-width: 1.236603462489695;" width="939.8186" x="14.0148" y="562.6618"></rect><rect fill="#FFFFFF" height="670.2391" rx="10.305" ry="10.305" style="stroke: #FFFFFF; stroke-width: 0.8244023083264633;" width="934.8722" x="16.488" y="606.7746"></rect><line style="stroke: #A80036; stroke-width: 1.236603462489695;" x1="14.0148" x2="953.8335" y1="604.3014" y2="604.3014"></line><line style="stroke: #A80036; stroke-width: 1.236603462489695;" x1="14.0148" x2="953.8335" y1="586.6685" y2="586.6685"></line><text fill="#000000" font-family="sans-serif" font-size="11.5416" lengthAdjust="spacingAndGlyphs" textLength="30.5029" x="468.6727" y="580.0105">check</text><text fill="#000000" font-family="sans-serif" font-size="9.8928" lengthAdjust="spacingAndGlyphs" textLength="178.0709" x="18.1369" y="598.0057">根据栈顶以及读入的符号进行一定的判断</text><ellipse cx="366.859" cy="623.2626" fill="#000000" filter="url(#f14iep4fcyagw8)" rx="8.244" ry="8.244" style="stroke: none; stroke-width: 0.8244023083264633;"></ellipse><rect fill="#FEFECE" filter="url(#f14iep4fcyagw8)" height="72.7833" rx="10.305" ry="10.305" style="stroke: #A80036; stroke-width: 1.236603462489695;" width="135.202" x="23.0833" y="904.796"></rect><line style="stroke: #A80036; stroke-width: 1.236603462489695;" x1="23.0833" x2="158.2852" y1="928.8027" y2="928.8027"></line><text fill="#000000" font-family="sans-serif" font-size="11.5416" lengthAdjust="spacingAndGlyphs" textLength="32.1517" x="74.6084" y="922.1447">isACC</text><text fill="#000000" font-family="sans-serif" font-size="9.8928" lengthAdjust="spacingAndGlyphs" textLength="98.9283" x="27.2053" y="944.2619">当前状态为接受状态，</text><text fill="#000000" font-family="sans-serif" font-size="9.8928" lengthAdjust="spacingAndGlyphs" textLength="89.0354" x="27.2053" y="957.7727">表示识别到此的一个</text><text fill="#000000" font-family="sans-serif" font-size="9.8928" lengthAdjust="spacingAndGlyphs" textLength="118.7139" x="27.2053" y="971.2836">句子的语法结构符合该文法</text><rect fill="#FEFECE" filter="url(#f14iep4fcyagw8)" height="86.2942" rx="10.305" ry="10.305" style="stroke: #A80036; stroke-width: 1.236603462489695;" width="164.8805" x="173.1245" y="897.7886"></rect><line style="stroke: #A80036; stroke-width: 1.236603462489695;" x1="173.1245" x2="338.0049" y1="921.7953" y2="921.7953"></line><text fill="#000000" font-family="sans-serif" font-size="11.5416" lengthAdjust="spacingAndGlyphs" textLength="41.2201" x="234.9547" y="915.1373">ERROR</text><text fill="#000000" font-family="sans-serif" font-size="9.8928" lengthAdjust="spacingAndGlyphs" textLength="108.8211" x="177.2465" y="937.2545">当前从分析表读入的状态</text><text fill="#000000" font-family="sans-serif" font-size="9.8928" lengthAdjust="spacingAndGlyphs" textLength="79.1426" x="177.2465" y="950.7653">为一个非法状态，</text><text fill="#000000" font-family="sans-serif" font-size="9.8928" lengthAdjust="spacingAndGlyphs" textLength="148.3924" x="177.2465" y="964.2762">即未定义状态，此时表示识别到的</text><text fill="#000000" font-family="sans-serif" font-size="9.8928" lengthAdjust="spacingAndGlyphs" textLength="79.1426" x="177.2465" y="977.787">句子不属于该文法</text><ellipse cx="366.859" cy="1258.8768" fill="none" filter="url(#f14iep4fcyagw8)" rx="8.244" ry="8.244" style="stroke: #000000; stroke-width: 0.8244023083264633;"></ellipse><ellipse cx="367.2712" cy="1259.289" fill="#000000" rx="4.9464" ry="4.9464" style="stroke: none; stroke-width: 0.8244023083264633;"></ellipse><rect fill="#FEFECE" filter="url(#f14iep4fcyagw8)" height="305.4483" rx="10.305" ry="10.305" style="stroke: #A80036; stroke-width: 1.236603462489695;" width="249.7939" x="353.2564" y="788.1431"></rect><rect fill="#FFFFFF" height="258.8623" rx="10.305" ry="10.305" style="stroke: #FFFFFF; stroke-width: 0.8244023083264633;" width="244.8475" x="355.7296" y="832.2559"></rect><line style="stroke: #A80036; stroke-width: 1.236603462489695;" x1="353.2564" x2="603.0503" y1="829.7827" y2="829.7827"></line><line style="stroke: #A80036; stroke-width: 1.236603462489695;" x1="353.2564" x2="603.0503" y1="812.1498" y2="812.1498"></line><text fill="#000000" font-family="sans-serif" font-size="11.5416" lengthAdjust="spacingAndGlyphs" textLength="40.3957" x="457.9555" y="805.4918">isSHIFT</text><text fill="#000000" font-family="sans-serif" font-size="9.8928" lengthAdjust="spacingAndGlyphs" textLength="39.5713" x="357.3784" y="823.4869">移进状态</text><ellipse cx="467.0239" cy="848.7439" fill="#000000" filter="url(#f14iep4fcyagw8)" rx="8.244" ry="8.244" style="stroke: none; stroke-width: 0.8244023083264633;"></ellipse><rect fill="#FEFECE" filter="url(#f14iep4fcyagw8)" height="72.7833" rx="10.305" ry="10.305" style="stroke: #A80036; stroke-width: 1.236603462489695;" width="209.3982" x="362.3248" y="886.6664"></rect><line style="stroke: #A80036; stroke-width: 1.236603462489695;" x1="362.3248" x2="571.723" y1="910.6731" y2="910.6731"></line><text fill="#000000" font-family="sans-serif" font-size="11.5416" lengthAdjust="spacingAndGlyphs" textLength="25.5565" x="454.2457" y="904.0151">push</text><text fill="#000000" font-family="sans-serif" font-size="9.8928" lengthAdjust="spacingAndGlyphs" textLength="131.08" x="366.4468" y="926.1323">将从分析表获得的状态state和</text><text fill="#000000" font-family="sans-serif" font-size="9.8928" lengthAdjust="spacingAndGlyphs" textLength="144.2704" x="366.4468" y="939.6431">当前读入的字符a压入分析栈中，</text><text fill="#000000" font-family="sans-serif" font-size="9.8928" lengthAdjust="spacingAndGlyphs" textLength="192.9101" x="366.4468" y="953.154">将属性文法的place属性压入placeStack栈中</text><rect fill="#FEFECE" filter="url(#f14iep4fcyagw8)" height="45.7616" rx="10.305" ry="10.305" style="stroke: #A80036; stroke-width: 1.236603462489695;" width="154.9876" x="389.5301" y="988.8923"></rect><line style="stroke: #A80036; stroke-width: 1.236603462489695;" x1="389.5301" x2="544.5177" y1="1012.899" y2="1012.899"></line><text fill="#000000" font-family="sans-serif" font-size="11.5416" lengthAdjust="spacingAndGlyphs" textLength="53.5862" x="440.2308" y="1006.241">ADVANCE</text><text fill="#000000" font-family="sans-serif" font-size="9.8928" lengthAdjust="spacingAndGlyphs" textLength="138.4996" x="393.6521" y="1028.3582">读入下一个词法分析后的终结符</text><ellipse cx="467.0239" cy="1072.9813" fill="none" filter="url(#f14iep4fcyagw8)" rx="8.244" ry="8.244" style="stroke: #000000; stroke-width: 0.8244023083264633;"></ellipse><ellipse cx="467.4361" cy="1073.3935" fill="#000000" rx="4.9464" ry="4.9464" style="stroke: none; stroke-width: 0.8244023083264633;"></ellipse><!--MD5=[33a12de3bbe9a739457cbd525175ffe7]
link *start*isSHIFT to push--><path d="M467.0239,857.0588 C467.0239,863.2674 467.0239,872.6161 467.0239,882.3045 " fill="none" id="*start*isSHIFT->push" style="stroke: #A80036; stroke-width: 0.8244023083264633;"></path><polygon fill="#A80036" points="467.0239,886.4694,470.3215,879.0498,467.0239,882.3474,463.7263,879.0498,467.0239,886.4694" style="stroke: #A80036; stroke-width: 0.8244023083264633;"></polygon><!--MD5=[bc785fb9a08d68fd007c8e73dbb73352]
link push to ADVANCE--><path d="M467.0239,959.3078 C467.0239,967.6804 467.0239,976.4669 467.0239,984.3787 " fill="none" id="push->ADVANCE" style="stroke: #A80036; stroke-width: 0.8244023083264633;"></path><polygon fill="#A80036" points="467.0239,988.6755,470.3215,981.2559,467.0239,984.5535,463.7263,981.2559,467.0239,988.6755" style="stroke: #A80036; stroke-width: 0.8244023083264633;"></polygon><!--MD5=[c3edd2eb5def80016d09a4789c5ca4a7]
link ADVANCE to *end*isSHIFT--><path d="M467.0239,1035.2403 C467.0239,1043.8315 467.0239,1053.2844 467.0239,1060.4739 " fill="none" id="ADVANCE->*end*isSHIFT" style="stroke: #A80036; stroke-width: 0.8244023083264633;"></path><polygon fill="#A80036" points="467.0239,1064.6299,470.3215,1057.2103,467.0239,1060.5079,463.7263,1057.2103,467.0239,1064.6299" style="stroke: #A80036; stroke-width: 0.8244023083264633;"></polygon><rect fill="#FEFECE" filter="url(#f14iep4fcyagw8)" height="559.3642" rx="10.305" ry="10.305" style="stroke: #A80036; stroke-width: 1.236603462489695;" width="304.2045" x="617.8895" y="661.1851"></rect><rect fill="#FFFFFF" height="512.7782" rx="10.305" ry="10.305" style="stroke: #FFFFFF; stroke-width: 0.8244023083264633;" width="299.258" x="620.3627" y="705.2979"></rect><line style="stroke: #A80036; stroke-width: 1.236603462489695;" x1="617.8895" x2="922.094" y1="702.8247" y2="702.8247"></line><line style="stroke: #A80036; stroke-width: 1.236603462489695;" x1="617.8895" x2="922.094" y1="685.1918" y2="685.1918"></line><text fill="#000000" font-family="sans-serif" font-size="11.5416" lengthAdjust="spacingAndGlyphs" textLength="55.235" x="742.3743" y="678.5338">isREDUCE</text><text fill="#000000" font-family="sans-serif" font-size="9.8928" lengthAdjust="spacingAndGlyphs" textLength="39.5713" x="622.0115" y="696.529">规约状态</text><ellipse cx="758.8623" cy="721.786" fill="#000000" filter="url(#f14iep4fcyagw8)" rx="8.244" ry="8.244" style="stroke: none; stroke-width: 0.8244023083264633;"></ellipse><rect fill="#FEFECE" filter="url(#f14iep4fcyagw8)" height="45.7616" rx="10.305" ry="10.305" style="stroke: #A80036; stroke-width: 1.236603462489695;" width="233.3059" x="642.2094" y="759.7085"></rect><line style="stroke: #A80036; stroke-width: 1.236603462489695;" x1="642.2094" x2="875.5153" y1="783.7152" y2="783.7152"></line><text fill="#000000" font-family="sans-serif" font-size="11.5416" lengthAdjust="spacingAndGlyphs" textLength="72.5474" x="722.5886" y="777.0571">getProduction</text><text fill="#000000" font-family="sans-serif" font-size="9.8928" lengthAdjust="spacingAndGlyphs" textLength="216.8178" x="646.3314" y="799.1743">通过分析表获得的状态 r_i 获取第i个产生式的指针</text><rect fill="#FEFECE" filter="url(#f14iep4fcyagw8)" height="45.7616" rx="10.305" ry="10.305" style="stroke: #A80036; stroke-width: 1.236603462489695;" width="95.6307" x="711.047" y="835.5535"></rect><line style="stroke: #A80036; stroke-width: 1.236603462489695;" x1="711.047" x2="806.6777" y1="859.5602" y2="859.5602"></line><text fill="#000000" font-family="sans-serif" font-size="11.5416" lengthAdjust="spacingAndGlyphs" textLength="36.2737" x="740.7255" y="852.9022">getLen</text><text fill="#000000" font-family="sans-serif" font-size="9.8928" lengthAdjust="spacingAndGlyphs" textLength="79.1426" x="715.169" y="875.0193">获取产生式的长度</text><rect fill="#FEFECE" filter="url(#f14iep4fcyagw8)" height="59.2724" rx="10.305" ry="10.305" style="stroke: #A80036; stroke-width: 1.236603462489695;" width="263.8087" x="626.958" y="911.3985"></rect><line style="stroke: #A80036; stroke-width: 1.236603462489695;" x1="626.958" x2="890.7667" y1="935.4052" y2="935.4052"></line><text fill="#000000" font-family="sans-serif" font-size="11.5416" lengthAdjust="spacingAndGlyphs" textLength="57.7082" x="730.0082" y="928.7472">modifyTOP</text><text fill="#000000" font-family="sans-serif" font-size="9.8928" lengthAdjust="spacingAndGlyphs" textLength="247.3207" x="631.08" y="950.8643">根据产生式的长度来回退栈顶指针，完成一次规约操作，</text><text fill="#000000" font-family="sans-serif" font-size="9.8928" lengthAdjust="spacingAndGlyphs" textLength="160.7585" x="631.08" y="964.3752">同时要完成place和ans栈中值的恢复</text><rect fill="#FEFECE" filter="url(#f14iep4fcyagw8)" height="59.2724" rx="10.305" ry="10.305" style="stroke: #A80036; stroke-width: 1.236603462489695;" width="173.1245" x="672.3001" y="1000.4339"></rect><line style="stroke: #A80036; stroke-width: 1.236603462489695;" x1="672.3001" x2="845.4246" y1="1024.4406" y2="1024.4406"></line><text fill="#000000" font-family="sans-serif" font-size="11.5416" lengthAdjust="spacingAndGlyphs" textLength="53.5862" x="732.0692" y="1017.7826">GetGOTO</text><text fill="#000000" font-family="sans-serif" font-size="9.8928" lengthAdjust="spacingAndGlyphs" textLength="156.6364" x="676.4221" y="1039.8998">根据新栈顶的状态，查找GOTO表，</text><text fill="#000000" font-family="sans-serif" font-size="9.8928" lengthAdjust="spacingAndGlyphs" textLength="79.1426" x="676.4221" y="1053.4106">获得新的下一状态</text><rect fill="#FEFECE" filter="url(#f14iep4fcyagw8)" height="72.7833" rx="10.305" ry="10.305" style="stroke: #A80036; stroke-width: 1.236603462489695;" width="187.9637" x="664.8805" y="1089.4694"></rect><line style="stroke: #A80036; stroke-width: 1.236603462489695;" x1="664.8805" x2="852.8442" y1="1113.4761" y2="1113.4761"></line><text fill="#000000" font-family="sans-serif" font-size="11.5416" lengthAdjust="spacingAndGlyphs" textLength="29.6785" x="744.0231" y="1106.8181">PUSH</text><text fill="#000000" font-family="sans-serif" font-size="9.8928" lengthAdjust="spacingAndGlyphs" textLength="168.1781" x="669.0025" y="1128.9352">将新状态和规约后左边的非终结符作为</text><text fill="#000000" font-family="sans-serif" font-size="9.8928" lengthAdjust="spacingAndGlyphs" textLength="171.4757" x="669.0025" y="1142.4461">新的分析栈的栈顶元素，及push操作，</text><text fill="#000000" font-family="sans-serif" font-size="9.8928" lengthAdjust="spacingAndGlyphs" textLength="81.6158" x="669.0025" y="1155.957">place和ans值同理</text><ellipse cx="758.8623" cy="1199.9393" fill="none" filter="url(#f14iep4fcyagw8)" rx="8.244" ry="8.244" style="stroke: #000000; stroke-width: 0.8244023083264633;"></ellipse><ellipse cx="759.2745" cy="1200.3515" fill="#000000" rx="4.9464" ry="4.9464" style="stroke: none; stroke-width: 0.8244023083264633;"></ellipse><!--MD5=[127e312a1f3f851c2a0c739adbcdd968]
link *start*isREDUCE to getProduction--><path d="M758.8623,730.1281 C758.8623,736.5667 758.8623,746.2377 758.8623,755.4892 " fill="none" id="*start*isREDUCE->getProduction" style="stroke: #A80036; stroke-width: 0.8244023083264633;"></path><polygon fill="#A80036" points="758.8623,759.6977,762.1599,752.2781,758.8623,755.5757,755.5647,752.2781,758.8623,759.6977" style="stroke: #A80036; stroke-width: 0.8244023083264633;"></polygon><!--MD5=[81fa6b80ecd4047b6527bf74ba7b35f6]
link getProduction to getLen--><path d="M758.8623,805.8775 C758.8623,813.8016 758.8623,822.8074 758.8623,831.0679 " fill="none" id="getProduction->getLen" style="stroke: #A80036; stroke-width: 0.8244023083264633;"></path><polygon fill="#A80036" points="758.8623,835.3103,762.1599,827.8907,758.8623,831.1883,755.5647,827.8907,758.8623,835.3103" style="stroke: #A80036; stroke-width: 0.8244023083264633;"></polygon><!--MD5=[41a30db0b1e4ee174386d1469610351e]
link getLen to modifyTOP--><path d="M758.8623,881.7513 C758.8623,889.6186 758.8623,898.6409 758.8623,907.2072 " fill="none" id="getLen->modifyTOP" style="stroke: #A80036; stroke-width: 0.8244023083264633;"></path><polygon fill="#A80036" points="758.8623,911.3688,762.1599,903.9492,758.8623,907.2468,755.5647,903.9492,758.8623,911.3688" style="stroke: #A80036; stroke-width: 0.8244023083264633;"></polygon><!--MD5=[be99650819c011358c7ba2a66ebefde5]
link modifyTOP to GetGOTO--><path d="M758.8623,970.7571 C758.8623,978.8008 758.8623,987.6054 758.8623,995.8874 " fill="none" id="modifyTOP->GetGOTO" style="stroke: #A80036; stroke-width: 0.8244023083264633;"></path><polygon fill="#A80036" points="758.8623,1000.1635,762.1599,992.7439,758.8623,996.0415,755.5647,992.7439,758.8623,1000.1635" style="stroke: #A80036; stroke-width: 0.8244023083264633;"></polygon><!--MD5=[e91c76b64ac53c2156e682793ac97458]
link GetGOTO to PUSH--><path d="M758.8623,1059.9014 C758.8623,1067.8733 758.8623,1076.6615 758.8623,1085.1297 " fill="none" id="GetGOTO->PUSH" style="stroke: #A80036; stroke-width: 0.8244023083264633;"></path><polygon fill="#A80036" points="758.8623,1089.2559,762.1599,1081.8362,758.8623,1085.1339,755.5647,1081.8362,758.8623,1089.2559" style="stroke: #A80036; stroke-width: 0.8244023083264633;"></polygon><!--MD5=[f83cb043eddde47c06c203d8f3f21474]
link PUSH to *end*isREDUCE--><path d="M758.8623,1162.2036 C758.8623,1171.171 758.8623,1180.1903 758.8623,1187.0686 " fill="none" id="PUSH->*end*isREDUCE" style="stroke: #A80036; stroke-width: 0.8244023083264633;"></path><polygon fill="#A80036" points="758.8623,1191.4615,762.1599,1184.0419,758.8623,1187.3395,755.5647,1184.0419,758.8623,1191.4615" style="stroke: #A80036; stroke-width: 0.8244023083264633;"></polygon><!--MD5=[42ec3de68b7a74c3348850cc508dd762]
link *start*check to isSHIFT--><path d="M369.3924,631.2841 C376.9349,652.7103 400.1542,718.6699 423.2119,784.1695 " fill="none" id="*start*check->isSHIFT" style="stroke: #A80036; stroke-width: 0.8244023083264633;"></path><polygon fill="#A80036" points="424.5894,788.0837,425.2363,779.9901,423.2208,784.1956,419.0153,782.18,424.5894,788.0837" style="stroke: #A80036; stroke-width: 0.8244023083264633;"></polygon><!--MD5=[f3e8fdc9d24cf75b22c315e02f3308d4]
link *start*check to isREDUCE--><path d="M375.2325,624.397 C413.4584,625.9543 571.23,633.956 610.8821,661.1851 C612.0313,661.9741 613.1731,662.7746 614.3083,663.5858 " fill="none" id="*start*check->isREDUCE" style="stroke: #A80036; stroke-width: 0.8244023083264633;"></path><polygon fill="#A80036" points="617.6908,666.0524,613.6373,659.0172,614.3598,663.6245,609.7526,664.347,617.6908,666.0524" style="stroke: #A80036; stroke-width: 0.8244023083264633;"></polygon><!--MD5=[43b16192a41bb62a166a27feed23d310]
link *start*check to isACC--><path d="M358.69,624.4621 C324.6702,626.186 194.6727,634.4531 165.7049,661.1851 C98.1964,723.4828 88.8797,839.4275 89.0475,900.4053 " fill="none" id="*start*check->isACC" style="stroke: #A80036; stroke-width: 0.8244023083264633;"></path><polygon fill="#A80036" points="89.0753,904.6996,92.324,897.2584,89.0482,900.5776,85.729,897.3018,89.0753,904.6996" style="stroke: #A80036; stroke-width: 0.8244023083264633;"></polygon><!--MD5=[136f74d4d60092c029cf41f91dd3028e]
link *start*check to ERROR--><path d="M362.6315,630.4341 C357.9596,637.6509 350.4336,649.8991 345.4246,661.1851 C310.4089,740.0771 282.3528,836.9032 267.4007,893.2849 " fill="none" id="*start*check->ERROR" style="stroke: #A80036; stroke-width: 0.8244023083264633;"></path><polygon fill="#A80036" points="266.2589,897.6081,271.3422,891.2768,267.3117,893.6228,264.9658,889.5923,266.2589,897.6081" style="stroke: #A80036; stroke-width: 0.8244023083264633;"></polygon><!--MD5=[6aaa4922e500c12e50f42fd489749d8a]
link isSHIFT to *end*check--><path d="M424.5433,1094.1851 C402.3487,1157.2346 379.7214,1221.513 370.8096,1246.8302 " fill="none" id="isSHIFT->*end*check" style="stroke: #A80036; stroke-width: 0.8244023083264633;"></path><polygon fill="#A80036" points="369.4031,1250.825,374.9776,1244.9216,370.772,1246.937,368.7567,1242.7314,369.4031,1250.825" style="stroke: #A80036; stroke-width: 0.8244023083264633;"></polygon><!--MD5=[d82b98a96c4badf73e4471944ac63e32]
link isREDUCE to *end*check--><path d="M617.6908,1216.0868 C615.4501,1217.7525 613.1805,1219.3758 610.8821,1220.9543 C572.5466,1247.2792 423.8054,1255.6328 379.427,1257.5655 " fill="none" id="isREDUCE->*end*check" style="stroke: #A80036; stroke-width: 0.8244023083264633;"></path><polygon fill="#A80036" points="375.2325,1257.7424,382.7849,1260.7233,379.3508,1257.5681,382.506,1254.134,375.2325,1257.7424" style="stroke: #A80036; stroke-width: 0.8244023083264633;"></polygon><!--MD5=[e533c09db0c6daeff30d4152d5fc852f]
link isACC to *end*check--><path d="M89.0753,977.4399 C88.466,1037.1159 96.5762,1157.1621 165.7049,1220.9543 C193.5977,1246.6945 315.1616,1255.3143 354.5161,1257.4581 " fill="none" id="isACC->*end*check" style="stroke: #A80036; stroke-width: 0.8244023083264633;"></path><polygon fill="#A80036" points="358.69,1257.6777,351.454,1253.9946,354.5737,1257.461,351.1073,1260.5807,358.69,1257.6777" style="stroke: #A80036; stroke-width: 0.8244023083264633;"></polygon><!--MD5=[811d2f12523c11508145d95d3303d37e]
link ERROR to *end*check--><path d="M266.2589,984.5314 C280.8953,1040.1785 309.4971,1140.0071 345.4246,1220.9543 C349.6513,1230.4769 355.6686,1240.6844 360.2531,1247.9769 " fill="none" id="ERROR->*end*check" style="stroke: #A80036; stroke-width: 0.8244023083264633;"></path><polygon fill="#A80036" points="362.6315,1251.7055,361.4215,1243.6768,360.4147,1248.2303,355.8612,1247.2236,362.6315,1251.7055" style="stroke: #A80036; stroke-width: 0.8244023083264633;"></polygon><!--MD5=[e879c36c4919fcb92c0042c3cda23630]
link *start*SemanticAnalysisAndIntermediateCodeGeneration to LexicalAnalysis--><path d="M235.7972,204.0468 C239.3388,204.0468 242.8805,204.0468 246.4213,204.0468 " fill="none" id="*start*SemanticAnalysisAndIntermediateCodeGeneration->LexicalAnalysis" style="stroke: #A80036; stroke-width: 0.8244023083264633;"></path><polygon fill="#A80036" points="250.5787,204.0468,243.1591,200.7492,246.4567,204.0468,243.1591,207.3444,250.5787,204.0468" style="stroke: #A80036; stroke-width: 0.8244023083264633;"></polygon><!--MD5=[afe7954ae8a0c17d425af97b90987d6b]
link LexicalAnalysis to init--><path d="M483.9242,227.2702 C483.9242,234.7063 483.9242,243.412 483.9242,252.431 " fill="none" id="LexicalAnalysis->init" style="stroke: #A80036; stroke-width: 0.8244023083264633;"></path><polygon fill="#A80036" points="483.9242,256.5942,487.2218,249.1746,483.9242,252.4722,480.6265,249.1746,483.9242,256.5942" style="stroke: #A80036; stroke-width: 0.8244023083264633;"></polygon><!--MD5=[21405cbe9d3cbe2a728f58b0f1cb7f60]
link init to AnalysisStackInit--><path d="M483.9242,381.5324 C483.9242,390.3782 483.9242,399.0674 483.9242,406.7179 " fill="none" id="init->AnalysisStackInit" style="stroke: #A80036; stroke-width: 0.8244023083264633;"></path><polygon fill="#A80036" points="483.9242,410.8564,487.2218,403.4368,483.9242,406.7344,480.6265,403.4368,483.9242,410.8564" style="stroke: #A80036; stroke-width: 0.8244023083264633;"></polygon><!--MD5=[1ffb52078b1b4423488e1861c68115ef]
link AnalysisStackInit to pop--><path d="M483.9242,457.1383 C483.9242,465.0608 483.9242,474.0715 483.9242,482.3321 " fill="none" id="AnalysisStackInit->pop" style="stroke: #A80036; stroke-width: 0.8244023083264633;"></path><polygon fill="#A80036" points="483.9242,486.5777,487.2429,479.1676,483.9359,482.4557,480.6478,479.1487,483.9242,486.5777" style="stroke: #A80036; stroke-width: 0.8244023083264633;"></polygon><!--MD5=[baf12571f4dff00b7876c1ade6dc741c]
link pop to check--><path d="M481.2185,533.0443 C480.8442,540.0584 480.5062,548.5283 480.2053,558.168 " fill="none" id="pop->check" style="stroke: #A80036; stroke-width: 0.8244023083264633;"></path><polygon fill="#A80036" points="480.0791,562.37,483.5978,555.0526,480.2028,558.2498,477.0056,554.8548,480.0791,562.37" style="stroke: #A80036; stroke-width: 0.8244023083264633;"></polygon><!--MD5=[8b6532096c5af3f970a27560aad0662c]
link check to pop--><path d="M487.7692,562.37 C487.4946,552.9355 487.1871,544.5126 486.8458,537.3436 " fill="none" id="check->pop" style="stroke: #A80036; stroke-width: 0.8244023083264633;"></path><polygon fill="#A80036" points="486.6298,533.0443,483.7117,540.6213,486.8383,537.1611,490.2985,540.2877,486.6298,533.0443" style="stroke: #A80036; stroke-width: 0.8244023083264633;"></polygon><!--MD5=[0642d2134e160975873b55323b47d830]
link check to release--><path d="M483.9242,1279.9368 C483.9242,1289.4373 483.9242,1297.9181 483.9242,1305.1329 " fill="none" id="check->release" style="stroke: #A80036; stroke-width: 0.8244023083264633;"></path><polygon fill="#A80036" points="483.9242,1309.4593,487.2218,1302.0396,483.9242,1305.3373,480.6265,1302.0396,483.9242,1309.4593" style="stroke: #A80036; stroke-width: 0.8244023083264633;"></polygon><!--MD5=[ba00d44553b81e882d15a9b583cdc7bc]
link release to return--><path d="M537.0981,1332.6536 C540.4534,1332.6536 543.8079,1332.6536 547.1632,1332.6536 " fill="none" id="release->return" style="stroke: #A80036; stroke-width: 0.8244023083264633;"></path><polygon fill="#A80036" points="551.4122,1332.6536,543.9926,1329.356,547.2902,1332.6536,543.9926,1335.9512,551.4122,1332.6536" style="stroke: #A80036; stroke-width: 0.8244023083264633;"></polygon><!--MD5=[3a49557cc214808664416704f4135b4e]
link *start to main--><path d="M378.8351,42.8689 C387.0181,42.8689 395.2012,42.8689 403.3842,42.8689 " fill="none" id="*start->main" style="stroke: #A80036; stroke-width: 0.8244023083264633;"></path><polygon fill="#A80036" points="407.6628,42.8689,400.2432,39.5713,403.5408,42.8689,400.2432,46.1665,407.6628,42.8689" style="stroke: #A80036; stroke-width: 0.8244023083264633;"></polygon><!--MD5=[ab5e1288ddae3a00f4d84756f6e6293e]
link main to SemanticAnalysisAndIntermediateCodeGeneration--><path d="M495.0536,79.3322 C495.0536,91.6241 495.0536,106.7354 495.0536,124.089 " fill="none" id="main->SemanticAnalysisAndIntermediateCodeGeneration" style="stroke: #A80036; stroke-width: 0.8244023083264633;"></path><polygon fill="#A80036" points="495.0536,128.31,498.3512,120.8904,495.0536,124.188,491.756,120.8904,495.0536,128.31" style="stroke: #A80036; stroke-width: 0.8244023083264633;"></polygon><!--MD5=[8629c4bf3cc89ba699d49e6c2cc45df4]
link SemanticAnalysisAndIntermediateCodeGeneration to end--><path d="M495.0536,1368.8475 C495.0536,1386.0618 495.0536,1401.1987 495.0536,1413.7298 " fill="none" id="SemanticAnalysisAndIntermediateCodeGeneration->end" style="stroke: #A80036; stroke-width: 0.8244023083264633;"></path><polygon fill="#A80036" points="495.0536,1417.8787,498.3512,1410.4591,495.0536,1413.7567,491.756,1410.4591,495.0536,1417.8787" style="stroke: #A80036; stroke-width: 0.8244023083264633;"></polygon><!--MD5=[1bb2d46491ec20157ee310d1c4a6ef90]
link end to *end--><path d="M712.4782,1454.2457 C720.6711,1454.2457 728.8631,1454.2457 737.0552,1454.2457 " fill="none" id="end->*end" style="stroke: #A80036; stroke-width: 0.8244023083264633;"></path><polygon fill="#A80036" points="741.3397,1454.2457,733.92,1450.9481,737.2176,1454.2457,733.92,1457.5433,741.3397,1454.2457" style="stroke: #A80036; stroke-width: 0.8244023083264633;"></polygon><!--MD5=[a040c0504a805c1d285f243d94ceccb5]
@startuml
hide empty description
scale 1000 width
[*] -> main
main - -> SemanticAnalysisAndIntermediateCodeGeneration
SemanticAnalysisAndIntermediateCodeGeneration - -> end
end -> [*]

main: 调用分析程序的一个项目入口程序，\n这样将分析程序独立，\n便于将其扩展到后续的使用中

SemanticAnalysisAndIntermediateCodeGeneration: SemanticAnalysisAndIntermediateCodeGeneration分析程序，包括词法分析、语法分析以及语义分析

end: 将调用SemanticAnalysisAndIntermediateCodeGeneration分析程序的结果输出到标准输出中，\n即判断所给词法分析是否符合一定的语法结构，\n并对算术表达式给出计算结果，对于一般的表达式给出四元式形式的中间代码。

state SemanticAnalysisAndIntermediateCodeGeneration{
    [*] -> LexicalAnalysis
    LexicalAnalysis - -> init
    init - -> AnalysisStackInit
    AnalysisStackInit - -> pop
    pop - -> check
    check - -> pop
    check - -> release
    release -> return
    
    LexicalAnalysis: 词法分析器，具体的实现为实验一的代码，产生一组分析结果，并给出是否是一个算术表达式Arithmetic
    init: 分析程序的初始化工作，\n创建文法的终结符、非终结符、产生式、SLR分析表以及属性文法等
    AnalysisStackInit: 分析栈初始化，初始化栈，将状态0和符号#压入
    pop: X = pop()，将分析栈顶的状态和符号的指针弹出，记为X，并从分析表中获得对应的状态state，根据状态转换
    check: 根据栈顶以及读入的符号进行一定的判断
    release: 释放申请的动态资源
    return: 返回分析结果
    state init{
        [*] -> VT
        VT -> VN
        VN -> Production
        Production -> AnalysisTable
        AnalysisTable -> AnalysisStack

        VT: 定义出文法的所有终结符
        VN: 定义出文法的所有非终结符
        Production: 构造所有的产生式
        AnalysisTable: 定义出SLR分析表，插入终结符和非终结符，创建对应的ACTION、GOTO表
        AnalysisStack: 分析栈
    }
    state check{
        [*] - -> isSHIFT
        [*] - -> isREDUCE
        [*] - -> isACC
        [*] - -> ERROR
        isSHIFT - -> [*]
        isREDUCE - -> [*]
        isACC - -> [*]
        ERROR - -> [*]

        isSHIFT: 移进状态
        isREDUCE: 规约状态

        state isSHIFT{
            [*] - -> push
            push - -> ADVANCE
            ADVANCE - -> [*]

            push: 将从分析表获得的状态state和\n当前读入的字符a压入分析栈中，\n将属性文法的place属性压入placeStack栈中
            ADVANCE: 读入下一个词法分析后的终结符
        }
        state isREDUCE{
            [*] - -> getProduction
            getProduction - -> getLen
            getLen - -> modifyTOP
            modifyTOP - -> GetGOTO
            GetGOTO - -> PUSH
            PUSH - -> [*]

            getProduction: 通过分析表获得的状态 r_i 获取第i个产生式的指针
            getLen: 获取产生式的长度
            modifyTOP: 根据产生式的长度来回退栈顶指针，完成一次规约操作，\n同时要完成place和ans栈中值的恢复
            GetGOTO: 根据新栈顶的状态，查找GOTO表，\n获得新的下一状态
            PUSH: 将新状态和规约后左边的非终结符作为\n新的分析栈的栈顶元素，及push操作，\nplace和ans值同理
        }

        isACC: 当前状态为接受状态，\n表示识别到此的一个\n句子的语法结构符合该文法

        ERROR: 当前从分析表读入的状态\n为一个非法状态，\n即未定义状态，此时表示识别到的\n句子不属于该文法
    }
    
}
@enduml

PlantUML version 1.2019.11(Sun Sep 22 18:02:15 CST 2019)
(MIT source distribution)
Java Runtime: Java(TM) SE Runtime Environment
JVM: Java HotSpot(TM) 64-Bit Server VM
Java Version: 1.8.0_211-b12
Operating System: Windows 10
Default Encoding: GBK
Language: zh
Country: CN
--></g></svg>