<svg xmlns="http://www.w3.org/2000/svg" xlink="http://www.w3.org/1999/xlink" contentscripttype="application/ecmascript" contentstyletype="text/css" height="1417.6805px" preserveAspectRatio="none" style="width:995px;height:1417px;" version="1.1" viewBox="0 0 995 1417" width="995.1338px" zoomAndPan="magnify"><defs><filter height="300%" id="fx8m0w0g5wplv" width="300%" x="-1" y="-1"><feGaussianBlur result="blurOut" stdDeviation="1.6220600162206003"></feGaussianBlur><feColorMatrix in="blurOut" result="blurOut2" type="matrix" values="0 0 0 0 0 0 0 0 0 0 0 0 0 0 0 0 0 0 .4 0"></feColorMatrix><feOffset dx="3.2441200324412005" dy="3.2441200324412005" in="blurOut2" result="blurOut3"></feOffset><feBlend in="SourceGraphic" in2="blurOut3" mode="normal"></feBlend></filter></defs><g><ellipse cx="362.9359" cy="42.1736" fill="#000000" filter="url(#fx8m0w0g5wplv)" rx="8.1103" ry="8.1103" style="stroke: none; stroke-width: 0.8110300081103001;"></ellipse><rect fill="#FEFECE" filter="url(#fx8m0w0g5wplv)" height="71.6027" rx="10.1379" ry="10.1379" style="stroke: #A80036; stroke-width: 1.2165450121654502;" width="191.4031" x="399.4323" y="6.4882"></rect><line style="stroke: #A80036; stroke-width: 1.2165450121654502;" x1="399.4323" x2="590.8354" y1="30.1055" y2="30.1055"></line><text fill="#000000" font-family="sans-serif" font-size="11.3544" lengthAdjust="spacingAndGlyphs" textLength="24.3309" x="482.9684" y="23.5555">main</text><text fill="#000000" font-family="sans-serif" font-size="9.7324" lengthAdjust="spacingAndGlyphs" textLength="175.1825" x="403.4874" y="45.3139">调用SLR分析程序的一个项目入口程序，</text><text fill="#000000" font-family="sans-serif" font-size="9.7324" lengthAdjust="spacingAndGlyphs" textLength="116.7883" x="403.4874" y="58.6056">这样将SLR分析程序独立，</text><text fill="#000000" font-family="sans-serif" font-size="9.7324" lengthAdjust="spacingAndGlyphs" textLength="126.5207" x="403.4874" y="71.8973">便于将其扩展到后续的使用中</text><rect fill="#FEFECE" filter="url(#fx8m0w0g5wplv)" height="58.311" rx="10.1379" ry="10.1379" style="stroke: #A80036; stroke-width: 1.2165450121654502;" width="220.6002" x="384.8337" y="1351.176"></rect><line style="stroke: #A80036; stroke-width: 1.2165450121654502;" x1="384.8337" x2="605.4339" y1="1374.7933" y2="1374.7933"></line><text fill="#000000" font-family="sans-serif" font-size="11.3544" lengthAdjust="spacingAndGlyphs" textLength="19.4647" x="485.4015" y="1368.2433">end</text><text fill="#000000" font-family="sans-serif" font-size="9.7324" lengthAdjust="spacingAndGlyphs" textLength="204.3796" x="388.8889" y="1390.0017">将调用SLR分析程序的结果输出到标准输出中，</text><text fill="#000000" font-family="sans-serif" font-size="9.7324" lengthAdjust="spacingAndGlyphs" textLength="194.6472" x="388.8889" y="1403.2934">即判断所给词法分析是否符合一定的语法结构</text><ellipse cx="641.9303" cy="1380.3731" fill="none" filter="url(#fx8m0w0g5wplv)" rx="8.1103" ry="8.1103" style="stroke: #000000; stroke-width: 0.8110300081103001;"></ellipse><ellipse cx="642.3358" cy="1380.7786" fill="#000000" rx="4.8662" ry="4.8662" style="stroke: none; stroke-width: 0.8110300081103001;"></ellipse><rect fill="#FEFECE" filter="url(#fx8m0w0g5wplv)" height="1175.5951" rx="10.1379" ry="10.1379" style="stroke: #A80036; stroke-width: 1.2165450121654502;" width="980.5353" x="4.8662" y="126.5207"></rect><rect fill="#FFFFFF" height="1129.7648" rx="10.1379" ry="10.1379" style="stroke: #FFFFFF; stroke-width: 0.8110300081103001;" width="975.6691" x="7.2993" y="169.9179"></rect><line style="stroke: #A80036; stroke-width: 1.2165450121654502;" x1="4.8662" x2="985.4015" y1="167.4848" y2="167.4848"></line><line style="stroke: #A80036; stroke-width: 1.2165450121654502;" x1="4.8662" x2="985.4015" y1="150.138" y2="150.138"></line><text fill="#000000" font-family="sans-serif" font-size="11.3544" lengthAdjust="spacingAndGlyphs" textLength="64.0714" x="463.0981" y="143.588">SLRAnalysis</text><text fill="#000000" font-family="sans-serif" font-size="9.7324" lengthAdjust="spacingAndGlyphs" textLength="58.3942" x="8.9213" y="161.2912">SLR分析程序</text><ellipse cx="21.8978" cy="239.261" fill="#000000" filter="url(#fx8m0w0g5wplv)" rx="8.1103" ry="8.1103" style="stroke: none; stroke-width: 0.8110300081103001;"></ellipse><rect fill="#FEFECE" filter="url(#fx8m0w0g5wplv)" height="45.0193" rx="10.1379" ry="10.1379" style="stroke: #A80036; stroke-width: 1.2165450121654502;" width="222.2222" x="388.4834" y="329.6908"></rect><line style="stroke: #A80036; stroke-width: 1.2165450121654502;" x1="388.4834" x2="610.7056" y1="353.3081" y2="353.3081"></line><text fill="#000000" font-family="sans-serif" font-size="11.3544" lengthAdjust="spacingAndGlyphs" textLength="85.1582" x="457.0154" y="346.7581">AnalysisStackInit</text><text fill="#000000" font-family="sans-serif" font-size="9.7324" lengthAdjust="spacingAndGlyphs" textLength="206.0016" x="392.5385" y="368.5165">分析栈初始化，初始化栈，将状态0和符号#压入</text><rect fill="#FEFECE" filter="url(#fx8m0w0g5wplv)" height="45.0193" rx="10.1379" ry="10.1379" style="stroke: #A80036; stroke-width: 1.2165450121654502;" width="482.5629" x="258.3131" y="404.3056"></rect><line style="stroke: #A80036; stroke-width: 1.2165450121654502;" x1="258.3131" x2="740.8759" y1="427.9229" y2="427.9229"></line><text fill="#000000" font-family="sans-serif" font-size="11.3544" lengthAdjust="spacingAndGlyphs" textLength="19.4647" x="489.8621" y="421.3729">pop</text><text fill="#000000" font-family="sans-serif" font-size="9.7324" lengthAdjust="spacingAndGlyphs" textLength="466.3423" x="262.3682" y="443.1313">X = pop()，将分析栈顶的状态和符号的指针弹出，记为X，并从分析表中获得对应的状态state，根据状态转换</text><rect fill="#FEFECE" filter="url(#fx8m0w0g5wplv)" height="45.0193" rx="10.1379" ry="10.1379" style="stroke: #A80036; stroke-width: 1.2165450121654502;" width="103.8118" x="447.6886" y="1169.9179"></rect><line style="stroke: #A80036; stroke-width: 1.2165450121654502;" x1="447.6886" x2="551.5004" y1="1193.5352" y2="1193.5352"></line><text fill="#000000" font-family="sans-serif" font-size="11.3544" lengthAdjust="spacingAndGlyphs" textLength="38.1184" x="480.5353" y="1186.9852">release</text><text fill="#000000" font-family="sans-serif" font-size="9.7324" lengthAdjust="spacingAndGlyphs" textLength="87.5912" x="451.7437" y="1208.7436">释放申请的动态资源</text><rect fill="#FEFECE" filter="url(#fx8m0w0g5wplv)" height="45.0193" rx="10.1379" ry="10.1379" style="stroke: #A80036; stroke-width: 1.2165450121654502;" width="74.6148" x="462.2871" y="1244.5327"></rect><line style="stroke: #A80036; stroke-width: 1.2165450121654502;" x1="462.2871" x2="536.9019" y1="1268.15" y2="1268.15"></line><text fill="#000000" font-family="sans-serif" font-size="11.3544" lengthAdjust="spacingAndGlyphs" textLength="30.8191" x="484.1849" y="1261.5999">return</text><text fill="#000000" font-family="sans-serif" font-size="9.7324" lengthAdjust="spacingAndGlyphs" textLength="58.3942" x="466.3423" y="1283.3584">返回分析结果</text><rect fill="#FEFECE" filter="url(#fx8m0w0g5wplv)" height="122.3824" rx="10.1379" ry="10.1379" style="stroke: #A80036; stroke-width: 1.2165450121654502;" width="909.1646" x="45.0122" y="178.0282"></rect><rect fill="#FFFFFF" height="63.2603" rx="10.1379" ry="10.1379" style="stroke: #FFFFFF; stroke-width: 0.8110300081103001;" width="904.2985" x="47.4453" y="234.7172"></rect><line style="stroke: #A80036; stroke-width: 1.2165450121654502;" x1="45.0122" x2="954.1768" y1="232.2841" y2="232.2841"></line><line style="stroke: #A80036; stroke-width: 1.2165450121654502;" x1="45.0122" x2="954.1768" y1="201.6455" y2="201.6455"></line><text fill="#000000" font-family="sans-serif" font-size="11.3544" lengthAdjust="spacingAndGlyphs" textLength="14.5985" x="492.2952" y="195.0955">init</text><text fill="#000000" font-family="sans-serif" font-size="9.7324" lengthAdjust="spacingAndGlyphs" textLength="126.5207" x="49.0673" y="212.7988">SLR分析程序的初始化工作，</text><text fill="#000000" font-family="sans-serif" font-size="9.7324" lengthAdjust="spacingAndGlyphs" textLength="233.5766" x="49.0673" y="226.0905">创建文法的终结符、非终结符、产生式、SLR分析表等</text><ellipse cx="62.0438" cy="265.5363" fill="#000000" filter="url(#fx8m0w0g5wplv)" rx="8.1103" ry="8.1103" style="stroke: none; stroke-width: 0.8110300081103001;"></ellipse><rect fill="#FEFECE" filter="url(#fx8m0w0g5wplv)" height="45.0193" rx="10.1379" ry="10.1379" style="stroke: #A80036; stroke-width: 1.2165450121654502;" width="123.2766" x="84.7526" y="242.8275"></rect><line style="stroke: #A80036; stroke-width: 1.2165450121654502;" x1="84.7526" x2="208.0292" y1="266.4447" y2="266.4447"></line><text fill="#000000" font-family="sans-serif" font-size="11.3544" lengthAdjust="spacingAndGlyphs" textLength="14.5985" x="139.0916" y="259.8947">VT</text><text fill="#000000" font-family="sans-serif" font-size="9.7324" lengthAdjust="spacingAndGlyphs" textLength="107.056" x="88.8078" y="281.6531">定义出文法的所有终结符</text><rect fill="#FEFECE" filter="url(#fx8m0w0g5wplv)" height="45.0193" rx="10.1379" ry="10.1379" style="stroke: #A80036; stroke-width: 1.2165450121654502;" width="133.0089" x="222.6277" y="242.8275"></rect><line style="stroke: #A80036; stroke-width: 1.2165450121654502;" x1="222.6277" x2="355.6367" y1="266.4447" y2="266.4447"></line><text fill="#000000" font-family="sans-serif" font-size="11.3544" lengthAdjust="spacingAndGlyphs" textLength="14.5985" x="281.8329" y="259.8947">VN</text><text fill="#000000" font-family="sans-serif" font-size="9.7324" lengthAdjust="spacingAndGlyphs" textLength="116.7883" x="226.6829" y="281.6531">定义出文法的所有非终结符</text><rect fill="#FEFECE" filter="url(#fx8m0w0g5wplv)" height="45.0193" rx="10.1379" ry="10.1379" style="stroke: #A80036; stroke-width: 1.2165450121654502;" width="94.0795" x="370.2352" y="242.8275"></rect><line style="stroke: #A80036; stroke-width: 1.2165450121654502;" x1="370.2352" x2="464.3147" y1="266.4447" y2="266.4447"></line><text fill="#000000" font-family="sans-serif" font-size="11.3544" lengthAdjust="spacingAndGlyphs" textLength="55.15" x="389.6999" y="259.8947">Production</text><text fill="#000000" font-family="sans-serif" font-size="9.7324" lengthAdjust="spacingAndGlyphs" textLength="77.8589" x="374.2903" y="281.6531">构造所有的产生式</text><rect fill="#FEFECE" filter="url(#fx8m0w0g5wplv)" height="45.0193" rx="10.1379" ry="10.1379" style="stroke: #A80036; stroke-width: 1.2165450121654502;" width="342.2547" x="478.9132" y="242.8275"></rect><line style="stroke: #A80036; stroke-width: 1.2165450121654502;" x1="478.9132" x2="821.1679" y1="266.4447" y2="266.4447"></line><text fill="#000000" font-family="sans-serif" font-size="11.3544" lengthAdjust="spacingAndGlyphs" textLength="71.3706" x="614.3552" y="259.8947">AnalysisTable</text><text fill="#000000" font-family="sans-serif" font-size="9.7324" lengthAdjust="spacingAndGlyphs" textLength="326.0341" x="482.9684" y="281.6531">定义出SLR分析表，插入终结符和非终结符，创建对应的ACTION、GOTO表</text><rect fill="#FEFECE" filter="url(#fx8m0w0g5wplv)" height="45.0193" rx="10.1379" ry="10.1379" style="stroke: #A80036; stroke-width: 1.2165450121654502;" width="86.7802" x="836.1719" y="242.8275"></rect><line style="stroke: #A80036; stroke-width: 1.2165450121654502;" x1="836.1719" x2="922.9521" y1="266.4447" y2="266.4447"></line><text fill="#000000" font-family="sans-serif" font-size="11.3544" lengthAdjust="spacingAndGlyphs" textLength="70.5596" x="844.2822" y="259.8947">AnalysisStack</text><text fill="#000000" font-family="sans-serif" font-size="9.7324" lengthAdjust="spacingAndGlyphs" textLength="29.1971" x="840.2271" y="281.6531">分析栈</text><!--MD5=[4861efbe0d8172b785bcd673ff9437a2]
link *start*init to VT--><path d="M70.2809,265.5363 C73.6255,265.5363 76.9702,265.5363 80.3148,265.5363 " fill="none" id="*start*init->VT" style="stroke: #A80036; stroke-width: 0.8110300081103001;"></path><polygon fill="#A80036" points="84.5515,265.5363,77.2522,262.2922,80.4964,265.5363,77.2522,268.7804,84.5515,265.5363" style="stroke: #A80036; stroke-width: 0.8110300081103001;"></polygon><!--MD5=[0671dea95fdcb55a05e1419195ea8180]
link VT to VN--><path d="M208.283,265.5363 C211.6131,265.5363 214.944,265.5363 218.2749,265.5363 " fill="none" id="VT->VN" style="stroke: #A80036; stroke-width: 0.8110300081103001;"></path><polygon fill="#A80036" points="222.4947,265.5363,215.1955,262.2922,218.4396,265.5363,215.1955,268.7804,222.4947,265.5363" style="stroke: #A80036; stroke-width: 0.8110300081103001;"></polygon><!--MD5=[94c4efbaf5372c41dff4d60d5d236058]
link VN to Production--><path d="M355.7064,265.5363 C359.1638,265.5363 362.6204,265.5363 366.0779,265.5363 " fill="none" id="VN->Production" style="stroke: #A80036; stroke-width: 0.8110300081103001;"></path><polygon fill="#A80036" points="370.1363,265.5363,362.837,262.2922,366.0811,265.5363,362.837,268.7804,370.1363,265.5363" style="stroke: #A80036; stroke-width: 0.8110300081103001;"></polygon><!--MD5=[14e1a29620db46fd77035878d4211250]
link Production to AnalysisTable--><path d="M464.3285,265.5363 C467.8045,265.5363 471.2806,265.5363 474.7567,265.5363 " fill="none" id="Production->AnalysisTable" style="stroke: #A80036; stroke-width: 0.8110300081103001;"></path><polygon fill="#A80036" points="478.837,265.5363,471.5377,262.2922,474.7818,265.5363,471.5377,268.7804,478.837,265.5363" style="stroke: #A80036; stroke-width: 0.8110300081103001;"></polygon><!--MD5=[5bb86263505a70820aebf1118f7abe06]
link AnalysisTable to AnalysisStack--><path d="M821.2855,265.5363 C824.8305,265.5363 828.3755,265.5363 831.9205,265.5363 " fill="none" id="AnalysisTable->AnalysisStack" style="stroke: #A80036; stroke-width: 0.8110300081103001;"></path><polygon fill="#A80036" points="836.0819,265.5363,828.7826,262.2922,832.0268,265.5363,828.7826,268.7804,836.0819,265.5363" style="stroke: #A80036; stroke-width: 0.8110300081103001;"></polygon><rect fill="#FEFECE" filter="url(#fx8m0w0g5wplv)" height="661.4021" rx="10.1379" ry="10.1379" style="stroke: #A80036; stroke-width: 1.2165450121654502;" width="852.3925" x="73.3982" y="478.9203"></rect><rect fill="#FFFFFF" height="615.5718" rx="10.1379" ry="10.1379" style="stroke: #FFFFFF; stroke-width: 0.8110300081103001;" width="847.5264" x="75.8313" y="522.3176"></rect><line style="stroke: #A80036; stroke-width: 1.2165450121654502;" x1="73.3982" x2="925.7908" y1="519.8845" y2="519.8845"></line><line style="stroke: #A80036; stroke-width: 1.2165450121654502;" x1="73.3982" x2="925.7908" y1="502.5376" y2="502.5376"></line><text fill="#000000" font-family="sans-serif" font-size="11.3544" lengthAdjust="spacingAndGlyphs" textLength="30.0081" x="484.5904" y="495.9876">check</text><text fill="#000000" font-family="sans-serif" font-size="9.7324" lengthAdjust="spacingAndGlyphs" textLength="175.1825" x="77.4534" y="513.6909">根据栈顶以及读入的符号进行一定的判断</text><ellipse cx="405.9205" cy="538.5382" fill="#000000" filter="url(#fx8m0w0g5wplv)" rx="8.1103" ry="8.1103" style="stroke: none; stroke-width: 0.8110300081103001;"></ellipse><rect fill="#FEFECE" filter="url(#fx8m0w0g5wplv)" height="71.6027" rx="10.1379" ry="10.1379" style="stroke: #A80036; stroke-width: 1.2165450121654502;" width="133.0089" x="82.3195" y="793.6071"></rect><line style="stroke: #A80036; stroke-width: 1.2165450121654502;" x1="82.3195" x2="215.3285" y1="817.2244" y2="817.2244"></line><text fill="#000000" font-family="sans-serif" font-size="11.3544" lengthAdjust="spacingAndGlyphs" textLength="31.6302" x="133.0089" y="810.6744">isACC</text><text fill="#000000" font-family="sans-serif" font-size="9.7324" lengthAdjust="spacingAndGlyphs" textLength="97.3236" x="86.3747" y="832.4328">当前状态为接受状态，</text><text fill="#000000" font-family="sans-serif" font-size="9.7324" lengthAdjust="spacingAndGlyphs" textLength="87.5912" x="86.3747" y="845.7245">表示识别到此的一个</text><text fill="#000000" font-family="sans-serif" font-size="9.7324" lengthAdjust="spacingAndGlyphs" textLength="116.7883" x="86.3747" y="859.0162">句子的语法结构符合该文法</text><rect fill="#FEFECE" filter="url(#fx8m0w0g5wplv)" height="84.8944" rx="10.1379" ry="10.1379" style="stroke: #A80036; stroke-width: 1.2165450121654502;" width="162.206" x="229.927" y="786.7134"></rect><line style="stroke: #A80036; stroke-width: 1.2165450121654502;" x1="229.927" x2="392.133" y1="810.3307" y2="810.3307"></line><text fill="#000000" font-family="sans-serif" font-size="11.3544" lengthAdjust="spacingAndGlyphs" textLength="40.5515" x="290.7543" y="803.7806">ERROR</text><text fill="#000000" font-family="sans-serif" font-size="9.7324" lengthAdjust="spacingAndGlyphs" textLength="107.056" x="233.9822" y="825.539">当前从分析表读入的状态</text><text fill="#000000" font-family="sans-serif" font-size="9.7324" lengthAdjust="spacingAndGlyphs" textLength="77.8589" x="233.9822" y="838.8308">为一个非法状态，</text><text fill="#000000" font-family="sans-serif" font-size="9.7324" lengthAdjust="spacingAndGlyphs" textLength="145.9854" x="233.9822" y="852.1225">即未定义状态，此时表示识别到的</text><text fill="#000000" font-family="sans-serif" font-size="9.7324" lengthAdjust="spacingAndGlyphs" textLength="77.8589" x="233.9822" y="865.4142">句子不属于该文法</text><ellipse cx="405.9205" cy="1120.0467" fill="none" filter="url(#fx8m0w0g5wplv)" rx="8.1103" ry="8.1103" style="stroke: #000000; stroke-width: 0.8110300081103001;"></ellipse><ellipse cx="406.326" cy="1120.4522" fill="#000000" rx="4.8662" ry="4.8662" style="stroke: none; stroke-width: 0.8110300081103001;"></ellipse><rect fill="#FEFECE" filter="url(#fx8m0w0g5wplv)" height="270.1704" rx="10.1379" ry="10.1379" style="stroke: #A80036; stroke-width: 1.2165450121654502;" width="188.159" x="406.7315" y="694.2559"></rect><rect fill="#FFFFFF" height="241.6869" rx="10.1379" ry="10.1379" style="stroke: #FFFFFF; stroke-width: 0.8110300081103001;" width="183.2928" x="409.1646" y="720.3063"></rect><line style="stroke: #A80036; stroke-width: 1.2165450121654502;" x1="406.7315" x2="594.8905" y1="717.8732" y2="717.8732"></line><text fill="#000000" font-family="sans-serif" font-size="11.3544" lengthAdjust="spacingAndGlyphs" textLength="39.7405" x="480.9408" y="711.3232">isSHIFT</text><ellipse cx="491.8897" cy="736.5269" fill="#000000" filter="url(#fx8m0w0g5wplv)" rx="8.1103" ry="8.1103" style="stroke: none; stroke-width: 0.8110300081103001;"></ellipse><rect fill="#FEFECE" filter="url(#fx8m0w0g5wplv)" height="58.311" rx="10.1379" ry="10.1379" style="stroke: #A80036; stroke-width: 1.2165450121654502;" width="148.4185" x="417.6805" y="773.8343"></rect><line style="stroke: #A80036; stroke-width: 1.2165450121654502;" x1="417.6805" x2="566.0989" y1="797.4516" y2="797.4516"></line><text fill="#000000" font-family="sans-serif" font-size="11.3544" lengthAdjust="spacingAndGlyphs" textLength="25.1419" x="479.3187" y="790.9016">push</text><text fill="#000000" font-family="sans-serif" font-size="9.7324" lengthAdjust="spacingAndGlyphs" textLength="128.9538" x="421.7356" y="812.66">将从分析表获得的状态state和</text><text fill="#000000" font-family="sans-serif" font-size="9.7324" lengthAdjust="spacingAndGlyphs" textLength="132.1979" x="421.7356" y="825.9517">当前读入的字符a压入分析栈中</text><rect fill="#FEFECE" filter="url(#fx8m0w0g5wplv)" height="45.0193" rx="10.1379" ry="10.1379" style="stroke: #A80036; stroke-width: 1.2165450121654502;" width="152.4736" x="415.6529" y="861.4255"></rect><line style="stroke: #A80036; stroke-width: 1.2165450121654502;" x1="415.6529" x2="568.1265" y1="885.0428" y2="885.0428"></line><text fill="#000000" font-family="sans-serif" font-size="11.3544" lengthAdjust="spacingAndGlyphs" textLength="52.717" x="465.5312" y="878.4928">ADVANCE</text><text fill="#000000" font-family="sans-serif" font-size="9.7324" lengthAdjust="spacingAndGlyphs" textLength="136.253" x="419.708" y="900.2512">读入下一个词法分析后的终结符</text><ellipse cx="491.8897" cy="944.1506" fill="none" filter="url(#fx8m0w0g5wplv)" rx="8.1103" ry="8.1103" style="stroke: #000000; stroke-width: 0.8110300081103001;"></ellipse><ellipse cx="492.2952" cy="944.5561" fill="#000000" rx="4.8662" ry="4.8662" style="stroke: none; stroke-width: 0.8110300081103001;"></ellipse><!--MD5=[33a12de3bbe9a739457cbd525175ffe7]
link *start*isSHIFT to push--><path d="M491.8897,744.7808 C491.8897,750.9576 491.8897,760.2033 491.8897,769.4815 " fill="none" id="*start*isSHIFT->push" style="stroke: #A80036; stroke-width: 0.8110300081103001;"></path><polygon fill="#A80036" points="491.8897,773.7354,495.1338,766.4361,491.8897,769.6802,488.6456,766.4361,491.8897,773.7354" style="stroke: #A80036; stroke-width: 0.8110300081103001;"></polygon><!--MD5=[bc785fb9a08d68fd007c8e73dbb73352]
link push to ADVANCE--><path d="M491.8897,832.312 C491.8897,840.4296 491.8897,849.2309 491.8897,857.2009 " fill="none" id="push->ADVANCE" style="stroke: #A80036; stroke-width: 0.8110300081103001;"></path><polygon fill="#A80036" points="491.8897,861.2852,495.1338,853.986,491.8897,857.2301,488.6456,853.986,491.8897,861.2852" style="stroke: #A80036; stroke-width: 0.8110300081103001;"></polygon><!--MD5=[c3edd2eb5def80016d09a4789c5ca4a7]
link ADVANCE to *end*isSHIFT--><path d="M491.8897,907.0217 C491.8897,915.4736 491.8897,924.7732 491.8897,931.8461 " fill="none" id="ADVANCE->*end*isSHIFT" style="stroke: #A80036; stroke-width: 0.8110300081103001;"></path><polygon fill="#A80036" points="491.8897,935.9346,495.1338,928.6354,491.8897,931.8795,488.6456,928.6354,491.8897,935.9346" style="stroke: #A80036; stroke-width: 0.8110300081103001;"></polygon><rect fill="#FEFECE" filter="url(#fx8m0w0g5wplv)" height="506.9912" rx="10.1379" ry="10.1379" style="stroke: #A80036; stroke-width: 1.2165450121654502;" width="285.4826" x="609.4891" y="575.8456"></rect><rect fill="#FFFFFF" height="478.5077" rx="10.1379" ry="10.1379" style="stroke: #FFFFFF; stroke-width: 0.8110300081103001;" width="280.6164" x="611.9221" y="601.8959"></rect><line style="stroke: #A80036; stroke-width: 1.2165450121654502;" x1="609.4891" x2="894.9716" y1="599.4629" y2="599.4629"></line><text fill="#000000" font-family="sans-serif" font-size="11.3544" lengthAdjust="spacingAndGlyphs" textLength="54.339" x="725.0608" y="592.9128">isREDUCE</text><ellipse cx="743.309" cy="618.1165" fill="#000000" filter="url(#fx8m0w0g5wplv)" rx="8.1103" ry="8.1103" style="stroke: none; stroke-width: 0.8110300081103001;"></ellipse><rect fill="#FEFECE" filter="url(#fx8m0w0g5wplv)" height="45.0193" rx="10.1379" ry="10.1379" style="stroke: #A80036; stroke-width: 1.2165450121654502;" width="229.5215" x="628.5483" y="655.4239"></rect><line style="stroke: #A80036; stroke-width: 1.2165450121654502;" x1="628.5483" x2="858.0697" y1="679.0412" y2="679.0412"></line><text fill="#000000" font-family="sans-serif" font-size="11.3544" lengthAdjust="spacingAndGlyphs" textLength="71.3706" x="707.6237" y="672.4912">getProduction</text><text fill="#000000" font-family="sans-serif" font-size="9.7324" lengthAdjust="spacingAndGlyphs" textLength="213.3009" x="632.6034" y="694.2496">通过分析表获得的状态 r_i 获取第i个产生式的指针</text><rect fill="#FEFECE" filter="url(#fx8m0w0g5wplv)" height="45.0193" rx="10.1379" ry="10.1379" style="stroke: #A80036; stroke-width: 1.2165450121654502;" width="94.0795" x="696.2693" y="730.0387"></rect><line style="stroke: #A80036; stroke-width: 1.2165450121654502;" x1="696.2693" x2="790.3487" y1="753.656" y2="753.656"></line><text fill="#000000" font-family="sans-serif" font-size="11.3544" lengthAdjust="spacingAndGlyphs" textLength="35.6853" x="725.4663" y="747.106">getLen</text><text fill="#000000" font-family="sans-serif" font-size="9.7324" lengthAdjust="spacingAndGlyphs" textLength="77.8589" x="700.3244" y="768.8644">获取产生式的长度</text><rect fill="#FEFECE" filter="url(#fx8m0w0g5wplv)" height="45.0193" rx="10.1379" ry="10.1379" style="stroke: #A80036; stroke-width: 1.2165450121654502;" width="249.7972" x="618.4104" y="804.6534"></rect><line style="stroke: #A80036; stroke-width: 1.2165450121654502;" x1="618.4104" x2="868.2076" y1="828.2707" y2="828.2707"></line><text fill="#000000" font-family="sans-serif" font-size="11.3544" lengthAdjust="spacingAndGlyphs" textLength="56.7721" x="714.923" y="821.7207">modifyTOP</text><text fill="#000000" font-family="sans-serif" font-size="9.7324" lengthAdjust="spacingAndGlyphs" textLength="233.5766" x="622.4655" y="843.4791">根据产生式的长度来回退栈顶指针，完成一次规约操作</text><rect fill="#FEFECE" filter="url(#fx8m0w0g5wplv)" height="58.311" rx="10.1379" ry="10.1379" style="stroke: #A80036; stroke-width: 1.2165450121654502;" width="170.3163" x="658.1509" y="879.2682"></rect><line style="stroke: #A80036; stroke-width: 1.2165450121654502;" x1="658.1509" x2="828.4672" y1="902.8855" y2="902.8855"></line><text fill="#000000" font-family="sans-serif" font-size="11.3544" lengthAdjust="spacingAndGlyphs" textLength="52.717" x="716.9505" y="896.3355">GetGOTO</text><text fill="#000000" font-family="sans-serif" font-size="9.7324" lengthAdjust="spacingAndGlyphs" textLength="154.0957" x="662.206" y="918.0939">根据新栈顶的状态，查找GOTO表，</text><text fill="#000000" font-family="sans-serif" font-size="9.7324" lengthAdjust="spacingAndGlyphs" textLength="77.8589" x="662.206" y="931.3856">获得新的下一状态</text><rect fill="#FEFECE" filter="url(#fx8m0w0g5wplv)" height="58.311" rx="10.1379" ry="10.1379" style="stroke: #A80036; stroke-width: 1.2165450121654502;" width="181.6707" x="652.4736" y="966.8594"></rect><line style="stroke: #A80036; stroke-width: 1.2165450121654502;" x1="652.4736" x2="834.1444" y1="990.4767" y2="990.4767"></line><text fill="#000000" font-family="sans-serif" font-size="11.3544" lengthAdjust="spacingAndGlyphs" textLength="29.1971" x="728.7105" y="983.9267">PUSH</text><text fill="#000000" font-family="sans-serif" font-size="9.7324" lengthAdjust="spacingAndGlyphs" textLength="165.4501" x="656.5288" y="1005.6851">将新状态和规约后左边的非终结符作为</text><text fill="#000000" font-family="sans-serif" font-size="9.7324" lengthAdjust="spacingAndGlyphs" textLength="158.9619" x="656.5288" y="1018.9768">新的分析栈的栈顶元素，及push操作</text><ellipse cx="743.309" cy="1062.561" fill="none" filter="url(#fx8m0w0g5wplv)" rx="8.1103" ry="8.1103" style="stroke: #000000; stroke-width: 0.8110300081103001;"></ellipse><ellipse cx="743.7145" cy="1062.9665" fill="#000000" rx="4.8662" ry="4.8662" style="stroke: none; stroke-width: 0.8110300081103001;"></ellipse><!--MD5=[127e312a1f3f851c2a0c739adbcdd968]
link *start*isREDUCE to getProduction--><path d="M743.309,626.3234 C743.309,632.6575 743.309,642.1717 743.309,651.2731 " fill="none" id="*start*isREDUCE->getProduction" style="stroke: #A80036; stroke-width: 0.8110300081103001;"></path><polygon fill="#A80036" points="743.309,655.4134,746.5531,648.1141,743.309,651.3582,740.0649,648.1141,743.309,655.4134" style="stroke: #A80036; stroke-width: 0.8110300081103001;"></polygon><!--MD5=[81fa6b80ecd4047b6527bf74ba7b35f6]
link getProduction to getLen--><path d="M743.309,700.844 C743.309,708.6397 743.309,717.4993 743.309,725.6259 " fill="none" id="getProduction->getLen" style="stroke: #A80036; stroke-width: 0.8110300081103001;"></path><polygon fill="#A80036" points="743.309,729.7994,746.5531,722.5002,743.309,725.7443,740.0649,722.5002,743.309,729.7994" style="stroke: #A80036; stroke-width: 0.8110300081103001;"></polygon><!--MD5=[41a30db0b1e4ee174386d1469610351e]
link getLen to modifyTOP--><path d="M743.309,775.4588 C743.309,783.2544 743.309,792.1141 743.309,800.2406 " fill="none" id="getLen->modifyTOP" style="stroke: #A80036; stroke-width: 0.8110300081103001;"></path><polygon fill="#A80036" points="743.309,804.4142,746.5531,797.1149,743.309,800.359,740.0649,797.1149,743.309,804.4142" style="stroke: #A80036; stroke-width: 0.8110300081103001;"></polygon><!--MD5=[be99650819c011358c7ba2a66ebefde5]
link modifyTOP to GetGOTO--><path d="M743.309,850.1019 C743.309,857.8416 743.309,866.7175 743.309,875.1449 " fill="none" id="modifyTOP->GetGOTO" style="stroke: #A80036; stroke-width: 0.8110300081103001;"></path><polygon fill="#A80036" points="743.309,879.239,746.5531,871.9397,743.309,875.1839,740.0649,871.9397,743.309,879.239" style="stroke: #A80036; stroke-width: 0.8110300081103001;"></polygon><!--MD5=[e91c76b64ac53c2156e682793ac97458]
link GetGOTO to PUSH--><path d="M743.309,937.664 C743.309,945.5772 743.309,954.239 743.309,962.3866 " fill="none" id="GetGOTO->PUSH" style="stroke: #A80036; stroke-width: 0.8110300081103001;"></path><polygon fill="#A80036" points="743.309,966.5934,746.5531,959.2942,743.309,962.5383,740.0649,959.2942,743.309,966.5934" style="stroke: #A80036; stroke-width: 0.8110300081103001;"></polygon><!--MD5=[f83cb043eddde47c06c203d8f3f21474]
link PUSH to *end*isREDUCE--><path d="M743.309,1025.5148 C743.309,1034.1204 743.309,1043.0873 743.309,1049.9479 " fill="none" id="PUSH->*end*isREDUCE" style="stroke: #A80036; stroke-width: 0.8110300081103001;"></path><polygon fill="#A80036" points="743.309,1054.3308,746.5531,1047.0315,743.309,1050.2757,740.0649,1047.0315,743.309,1054.3308" style="stroke: #A80036; stroke-width: 0.8110300081103001;"></polygon><!--MD5=[42ec3de68b7a74c3348850cc508dd762]
link *start*check to isSHIFT--><path d="M408.266,546.496 C415.0381,567.131 435.4112,629.2073 455.3236,689.8804 " fill="none" id="*start*check->isSHIFT" style="stroke: #A80036; stroke-width: 0.8110300081103001;"></path><polygon fill="#A80036" points="456.6342,693.8748,457.4395,685.9277,455.3693,690.022,451.275,687.9517,456.6342,693.8748" style="stroke: #A80036; stroke-width: 0.8110300081103001;"></polygon><!--MD5=[f3e8fdc9d24cf75b22c315e02f3308d4]
link *start*check to isREDUCE--><path d="M413.9384,539.9624 C446.7729,542.6023 570.7137,553.8764 602.1898,575.8456 C603.468,576.7377 604.7364,577.6436 605.9959,578.5649 " fill="none" id="*start*check->isREDUCE" style="stroke: #A80036; stroke-width: 0.8110300081103001;"></path><polygon fill="#A80036" points="609.309,581.0345,605.3961,574.0708,606.0579,578.6107,601.518,579.2725,609.309,581.0345" style="stroke: #A80036; stroke-width: 0.8110300081103001;"></polygon><!--MD5=[43b16192a41bb62a166a27feed23d310]
link *start*check to isACC--><path d="M397.8459,539.8658 C365.9262,542.0686 249.0065,551.6834 222.6277,575.8456 C162.1205,631.2673 150.1851,733.243 148.4516,789.1927 " fill="none" id="*start*check->isACC" style="stroke: #A80036; stroke-width: 0.8110300081103001;"></path><polygon fill="#A80036" points="148.3362,793.4709,151.7772,786.2623,148.4462,789.4172,145.2914,786.0862,148.3362,793.4709" style="stroke: #A80036; stroke-width: 0.8110300081103001;"></polygon><!--MD5=[136f74d4d60092c029cf41f91dd3028e]
link *start*check to ERROR--><path d="M403.575,546.496 C393.0292,578.6298 349.502,711.2568 326.0925,782.586 " fill="none" id="*start*check->ERROR" style="stroke: #A80036; stroke-width: 0.8110300081103001;"></path><polygon fill="#A80036" points="324.7867,786.5649,330.1459,780.6419,326.0517,782.7121,323.9814,778.6179,324.7867,786.5649" style="stroke: #A80036; stroke-width: 0.8110300081103001;"></polygon><!--MD5=[6aaa4922e500c12e50f42fd489749d8a]
link isSHIFT to *end*check--><path d="M456.6991,964.5122 C437.5629,1022.8204 417.6999,1083.3439 409.6448,1107.8879 " fill="none" id="isSHIFT->*end*check" style="stroke: #A80036; stroke-width: 0.8110300081103001;"></path><polygon fill="#A80036" points="408.2806,1112.0435,413.6395,1106.1202,409.5454,1108.1907,407.4749,1104.0966,408.2806,1112.0435" style="stroke: #A80036; stroke-width: 0.8110300081103001;"></polygon><!--MD5=[d82b98a96c4badf73e4471944ac63e32]
link isREDUCE to *end*check--><path d="M609.309,1077.5499 C606.9684,1079.3297 604.5953,1081.0605 602.1898,1082.7393 C571.9432,1103.8503 456.3147,1115.0858 418.1922,1118.2738 " fill="none" id="isREDUCE->*end*check" style="stroke: #A80036; stroke-width: 0.8110300081103001;"></path><polygon fill="#A80036" points="413.9384,1118.6228,421.4791,1121.2574,417.9799,1118.2902,420.947,1114.791,413.9384,1118.6228" style="stroke: #A80036; stroke-width: 0.8110300081103001;"></polygon><!--MD5=[e533c09db0c6daeff30d4152d5fc852f]
link isACC to *end*check--><path d="M148.3362,865.114 C149.5962,919.9964 160.5441,1025.8739 222.6277,1082.7393 C247.9765,1105.9573 356.9303,1115.7432 393.7267,1118.4263 " fill="none" id="isACC->*end*check" style="stroke: #A80036; stroke-width: 0.8110300081103001;"></path><polygon fill="#A80036" points="397.8459,1118.7187,390.7949,1114.9655,393.8009,1118.4314,390.3351,1121.4375,397.8459,1118.7187" style="stroke: #A80036; stroke-width: 0.8110300081103001;"></polygon><!--MD5=[811d2f12523c11508145d95d3303d37e]
link ERROR to *end*check--><path d="M324.8281,872.1456 C347.0511,939.8593 389.5645,1069.3988 402.2563,1108.0698 " fill="none" id="ERROR->*end*check" style="stroke: #A80036; stroke-width: 0.8110300081103001;"></path><polygon fill="#A80036" points="403.588,1112.1273,404.3937,1104.1803,402.3232,1108.2744,398.2291,1106.204,403.588,1112.1273" style="stroke: #A80036; stroke-width: 0.8110300081103001;"></polygon><!--MD5=[b2b8b642e5e9333ab2ed9ecf6a215525]
link *start*SLRAnalysis to init--><path d="M30.0616,239.261 C33.6319,239.261 37.2022,239.261 40.7725,239.261 " fill="none" id="*start*SLRAnalysis->init" style="stroke: #A80036; stroke-width: 0.8110300081103001;"></path><polygon fill="#A80036" points="44.9637,239.261,37.6645,236.0169,40.9086,239.261,37.6645,242.5051,44.9637,239.261" style="stroke: #A80036; stroke-width: 0.8110300081103001;"></polygon><!--MD5=[21405cbe9d3cbe2a728f58b0f1cb7f60]
link init to AnalysisStackInit--><path d="M499.5945,300.7289 C499.5945,309.4313 499.5945,317.9796 499.5945,325.5059 " fill="none" id="init->AnalysisStackInit" style="stroke: #A80036; stroke-width: 0.8110300081103001;"></path><polygon fill="#A80036" points="499.5945,329.5773,502.8386,322.278,499.5945,325.5221,496.3504,322.278,499.5945,329.5773" style="stroke: #A80036; stroke-width: 0.8110300081103001;"></polygon><!--MD5=[1ffb52078b1b4423488e1861c68115ef]
link AnalysisStackInit to pop--><path d="M499.5945,375.1085 C499.5945,382.9025 499.5945,391.7671 499.5945,399.8936 " fill="none" id="AnalysisStackInit->pop" style="stroke: #A80036; stroke-width: 0.8110300081103001;"></path><polygon fill="#A80036" points="499.5945,404.0704,502.8594,396.7804,499.6061,400.0153,496.3712,396.7619,499.5945,404.0704" style="stroke: #A80036; stroke-width: 0.8110300081103001;"></polygon><!--MD5=[baf12571f4dff00b7876c1ade6dc741c]
link pop to check--><path d="M496.8564,449.9666 C496.4842,456.8522 496.1492,465.1328 495.8532,474.5408 " fill="none" id="pop->check" style="stroke: #A80036; stroke-width: 0.8110300081103001;"></path><polygon fill="#A80036" points="495.7283,478.6365,499.2002,471.4428,495.8558,474.5833,492.7152,471.2389,495.7283,478.6365" style="stroke: #A80036; stroke-width: 0.8110300081103001;"></polygon><!--MD5=[8b6532096c5af3f970a27560aad0662c]
link check to pop--><path d="M503.4607,478.6365 C503.1906,469.4394 502.8856,461.2075 502.5474,454.1839 " fill="none" id="check->pop" style="stroke: #A80036; stroke-width: 0.8110300081103001;"></path><polygon fill="#A80036" points="502.3325,449.9666,499.4681,457.423,502.5411,454.0164,505.9478,457.0893,502.3325,449.9666" style="stroke: #A80036; stroke-width: 0.8110300081103001;"></polygon><!--MD5=[0642d2134e160975873b55323b47d830]
link check to release--><path d="M499.5945,1140.8027 C499.5945,1150.1101 499.5945,1158.4345 499.5945,1165.5246 " fill="none" id="check->release" style="stroke: #A80036; stroke-width: 0.8110300081103001;"></path><polygon fill="#A80036" points="499.5945,1169.7776,502.8386,1162.4783,499.5945,1165.7225,496.3504,1162.4783,499.5945,1169.7776" style="stroke: #A80036; stroke-width: 0.8110300081103001;"></polygon><!--MD5=[ba00d44553b81e882d15a9b583cdc7bc]
link release to return--><path d="M499.5945,1215.338 C499.5945,1223.1336 499.5945,1231.993 499.5945,1240.1199 " fill="none" id="release->return" style="stroke: #A80036; stroke-width: 0.8110300081103001;"></path><polygon fill="#A80036" points="499.5945,1244.2934,502.8386,1236.9942,499.5945,1240.2383,496.3504,1236.9942,499.5945,1244.2934" style="stroke: #A80036; stroke-width: 0.8110300081103001;"></polygon><!--MD5=[3a49557cc214808664416704f4135b4e]
link *start to main--><path d="M371.1987,42.1736 C379.1687,42.1736 387.1387,42.1736 395.1095,42.1736 " fill="none" id="*start->main" style="stroke: #A80036; stroke-width: 0.8110300081103001;"></path><polygon fill="#A80036" points="399.2774,42.1736,391.9781,38.9294,395.2222,42.1736,391.9781,45.4177,399.2774,42.1736" style="stroke: #A80036; stroke-width: 0.8110300081103001;"></polygon><!--MD5=[c171817cd6a0df71fee098101b071a58]
link main to SLRAnalysis--><path d="M495.1338,77.867 C495.1338,90 495.1338,104.9392 495.1338,122.0925 " fill="none" id="main->SLRAnalysis" style="stroke: #A80036; stroke-width: 0.8110300081103001;"></path><polygon fill="#A80036" points="495.1338,126.253,498.3779,118.9538,495.1338,122.1979,491.8897,118.9538,495.1338,126.253" style="stroke: #A80036; stroke-width: 0.8110300081103001;"></polygon><!--MD5=[2f8aa8c43d00b67545d77a91844f84c0]
link SLRAnalysis to end--><path d="M495.1338,1302.717 C495.1338,1319.8921 495.1338,1334.773 495.1338,1346.7446 " fill="none" id="SLRAnalysis->end" style="stroke: #A80036; stroke-width: 0.8110300081103001;"></path><polygon fill="#A80036" points="495.1338,1351.0224,498.3779,1343.7231,495.1338,1346.9672,491.8897,1343.7231,495.1338,1351.0224" style="stroke: #A80036; stroke-width: 0.8110300081103001;"></polygon><!--MD5=[1bb2d46491ec20157ee310d1c4a6ef90]
link end to *end--><path d="M605.5182,1380.3731 C613.5118,1380.3731 621.5061,1380.3731 629.5004,1380.3731 " fill="none" id="end->*end" style="stroke: #A80036; stroke-width: 0.8110300081103001;"></path><polygon fill="#A80036" points="633.6805,1380.3731,626.3812,1377.129,629.6253,1380.3731,626.3812,1383.6172,633.6805,1380.3731" style="stroke: #A80036; stroke-width: 0.8110300081103001;"></polygon><!--MD5=[b7b5f192e3a689d4c7ecbc9500d8b637]
@startuml
hide empty description
scale 1000 width
[*] -> main
main - -> SLRAnalysis
SLRAnalysis - -> end
end -> [*]

main: 调用SLR分析程序的一个项目入口程序，\n这样将SLR分析程序独立，\n便于将其扩展到后续的使用中

SLRAnalysis: SLR分析程序

end: 将调用SLR分析程序的结果输出到标准输出中，\n即判断所给词法分析是否符合一定的语法结构

state SLRAnalysis{
    [*] -> init
    init - -> AnalysisStackInit
    AnalysisStackInit - -> pop
    pop - -> check
    check - -> pop
    check - -> release
    release - -> return
    
    init: SLR分析程序的初始化工作，\n创建文法的终结符、非终结符、产生式、SLR分析表等
    AnalysisStackInit: 分析栈初始化，初始化栈，将状态0和符号#压入
    pop: X = pop()，将分析栈顶的状态和符号的指针弹出，记为X，并从分析表中获得对应的状态state，根据状态转换
    check: 根据栈顶以及读入的符号进行一定的判断
    release: 释放申请的动态资源
    return: 返回分析结果
    state init{
        [*] -> VT
        VT -> VN
        VN -> Production
        Production -> AnalysisTable
        AnalysisTable -> AnalysisStack

        VT: 定义出文法的所有终结符
        VN: 定义出文法的所有非终结符
        Production: 构造所有的产生式
        AnalysisTable: 定义出SLR分析表，插入终结符和非终结符，创建对应的ACTION、GOTO表
        AnalysisStack: 分析栈
    }
    state check{
        [*] - -> isSHIFT
        [*] - -> isREDUCE
        [*] - -> isACC
        [*] - -> ERROR
        isSHIFT - -> [*]
        isREDUCE - -> [*]
        isACC - -> [*]
        ERROR - -> [*]

        state isSHIFT{
            [*] - -> push
            push - -> ADVANCE
            ADVANCE - -> [*]

            push: 将从分析表获得的状态state和\n当前读入的字符a压入分析栈中
            ADVANCE: 读入下一个词法分析后的终结符
        }
        state isREDUCE{
            [*] - -> getProduction
            getProduction - -> getLen
            getLen - -> modifyTOP
            modifyTOP - -> GetGOTO
            GetGOTO - -> PUSH
            PUSH - -> [*]

            getProduction: 通过分析表获得的状态 r_i 获取第i个产生式的指针
            getLen: 获取产生式的长度
            modifyTOP: 根据产生式的长度来回退栈顶指针，完成一次规约操作
            GetGOTO: 根据新栈顶的状态，查找GOTO表，\n获得新的下一状态
            PUSH: 将新状态和规约后左边的非终结符作为\n新的分析栈的栈顶元素，及push操作
        }

        isACC: 当前状态为接受状态，\n表示识别到此的一个\n句子的语法结构符合该文法

        ERROR: 当前从分析表读入的状态\n为一个非法状态，\n即未定义状态，此时表示识别到的\n句子不属于该文法
    }
    
}
@enduml

PlantUML version 1.2019.11(Sun Sep 22 18:02:15 CST 2019)
(MIT source distribution)
Java Runtime: Java(TM) SE Runtime Environment
JVM: Java HotSpot(TM) 64-Bit Server VM
Java Version: 1.8.0_211-b12
Operating System: Windows 10
Default Encoding: GBK
Language: zh
Country: CN
--></g></svg>