<?xml version="1.0" encoding="UTF-8" standalone="no"?><svg xmlns="http://www.w3.org/2000/svg" xmlns:xlink="http://www.w3.org/1999/xlink" contentScriptType="application/ecmascript" contentStyleType="text/css" height="1409.5427px" preserveAspectRatio="none" style="width:994px;height:1409px;" version="1.1" viewBox="0 0 994 1409" width="994.0358px" zoomAndPan="magnify"><defs><filter height="300%" id="f18bihc6bteyth" width="300%" x="-1" y="-1"><feGaussianBlur result="blurOut" stdDeviation="1.9880715705765408"/><feColorMatrix in="blurOut" result="blurOut2" type="matrix" values="0 0 0 0 0 0 0 0 0 0 0 0 0 0 0 0 0 0 .4 0"/><feOffset dx="3.9761431411530817" dy="3.9761431411530817" in="blurOut2" result="blurOut3"/><feBlend in="SourceGraphic" in2="blurOut3" mode="normal"/></filter></defs><g><ellipse cx="332.008" cy="46.7197" fill="#000000" filter="url(#f18bihc6bteyth)" rx="9.9404" ry="9.9404" style="stroke: none; stroke-width: 0.9940357852882704;"/><rect fill="#FEFECE" filter="url(#f18bihc6bteyth)" height="77.7367" rx="12.4254" ry="12.4254" style="stroke: #A80036; stroke-width: 1.4910536779324057;" width="234.5924" x="376.7396" y="7.9523"/><line style="stroke: #A80036; stroke-width: 1.4910536779324057;" x1="376.7396" x2="611.332" y1="34.0923" y2="34.0923"/><text fill="#000000" font-family="sans-serif" font-size="13.9165" lengthAdjust="spacingAndGlyphs" textLength="31.8091" x="478.1312" y="25.8401">main</text><text fill="#000000" font-family="sans-serif" font-size="11.9284" lengthAdjust="spacingAndGlyphs" textLength="214.7117" x="381.7097" y="50.1347">调用预测分析程序的一个项目入口程序，</text><text fill="#000000" font-family="sans-serif" font-size="11.9284" lengthAdjust="spacingAndGlyphs" textLength="143.1412" x="381.7097" y="64.0202">这样将预测分析程序独立，</text><text fill="#000000" font-family="sans-serif" font-size="11.9284" lengthAdjust="spacingAndGlyphs" textLength="155.0696" x="381.7097" y="77.9056">便于将其扩展到后续的使用中</text><rect fill="#FEFECE" filter="url(#f18bihc6bteyth)" height="63.8513" rx="12.4254" ry="12.4254" style="stroke: #A80036; stroke-width: 1.4910536779324057;" width="270.3777" x="358.8469" y="1334.9901"/><line style="stroke: #A80036; stroke-width: 1.4910536779324057;" x1="358.8469" x2="629.2247" y1="1361.1301" y2="1361.1301"/><text fill="#000000" font-family="sans-serif" font-size="13.9165" lengthAdjust="spacingAndGlyphs" textLength="25.8449" x="481.1133" y="1352.8779">end</text><text fill="#000000" font-family="sans-serif" font-size="11.9284" lengthAdjust="spacingAndGlyphs" textLength="250.497" x="363.8171" y="1377.1725">将调用预测分析程序的结果输出到标准输出中，</text><text fill="#000000" font-family="sans-serif" font-size="11.9284" lengthAdjust="spacingAndGlyphs" textLength="238.5686" x="363.8171" y="1391.0579">即判断所给词法分析是否符合一定的语法结构</text><ellipse cx="673.9563" cy="1366.7992" fill="none" filter="url(#f18bihc6bteyth)" rx="9.9404" ry="9.9404" style="stroke: #000000; stroke-width: 0.9940357852882704;"/><ellipse cx="674.4533" cy="1367.2962" fill="#000000" rx="5.9642" ry="5.9642" style="stroke: none; stroke-width: 0.9940357852882704;"/><rect fill="#FEFECE" filter="url(#f18bihc6bteyth)" height="1130.4827" rx="12.4254" ry="12.4254" style="stroke: #A80036; stroke-width: 1.4910536779324057;" width="976.1431" x="5.9642" y="145.1292"/><rect fill="#FFFFFF" height="1079.5229" rx="12.4254" ry="12.4254" style="stroke: #FFFFFF; stroke-width: 0.9940357852882704;" width="970.1789" x="8.9463" y="193.107"/><line style="stroke: #A80036; stroke-width: 1.4910536779324057;" x1="5.9642" x2="982.1074" y1="190.1249" y2="190.1249"/><line style="stroke: #A80036; stroke-width: 1.4910536779324057;" x1="5.9642" x2="982.1074" y1="171.2693" y2="171.2693"/><text fill="#000000" font-family="sans-serif" font-size="13.9165" lengthAdjust="spacingAndGlyphs" textLength="124.2545" x="431.9085" y="163.017">PredictiveAnalysis</text><text fill="#000000" font-family="sans-serif" font-size="11.9284" lengthAdjust="spacingAndGlyphs" textLength="71.5706" x="10.9344" y="182.3415">预测分析程序</text><ellipse cx="43.2406" cy="271.1388" fill="#000000" filter="url(#f18bihc6bteyth)" rx="9.9404" ry="9.9404" style="stroke: none; stroke-width: 0.9940357852882704;"/><rect fill="#FEFECE" filter="url(#f18bihc6bteyth)" height="49.9658" rx="12.4254" ry="12.4254" style="stroke: #A80036; stroke-width: 1.4910536779324057;" width="280.3181" x="340.4573" y="375.0155"/><line style="stroke: #A80036; stroke-width: 1.4910536779324057;" x1="340.4573" x2="620.7753" y1="401.1556" y2="401.1556"/><text fill="#000000" font-family="sans-serif" font-size="13.9165" lengthAdjust="spacingAndGlyphs" textLength="116.3022" x="422.4652" y="392.9033">AnalysisStackInit</text><text fill="#000000" font-family="sans-serif" font-size="11.9284" lengthAdjust="spacingAndGlyphs" textLength="260.4374" x="345.4274" y="417.198">分析栈初始化，压入句子终结符#和文法开始符号</text><rect fill="#FEFECE" filter="url(#f18bihc6bteyth)" height="49.9658" rx="12.4254" ry="12.4254" style="stroke: #A80036; stroke-width: 1.4910536779324057;" width="254.4732" x="353.3797" y="460.5026"/><line style="stroke: #A80036; stroke-width: 1.4910536779324057;" x1="353.3797" x2="607.8529" y1="486.6426" y2="486.6426"/><text fill="#000000" font-family="sans-serif" font-size="13.9165" lengthAdjust="spacingAndGlyphs" textLength="26.839" x="467.1968" y="478.3904">pop</text><text fill="#000000" font-family="sans-serif" font-size="11.9284" lengthAdjust="spacingAndGlyphs" textLength="234.5924" x="358.3499" y="502.6851">X = pop()，将分析栈顶的符号弹出，记为X</text><rect fill="#FEFECE" filter="url(#f18bihc6bteyth)" height="49.9658" rx="12.4254" ry="12.4254" style="stroke: #A80036; stroke-width: 1.4910536779324057;" width="127.2366" x="416.998" y="1125.5125"/><line style="stroke: #A80036; stroke-width: 1.4910536779324057;" x1="416.998" x2="544.2346" y1="1151.6526" y2="1151.6526"/><text fill="#000000" font-family="sans-serif" font-size="13.9165" lengthAdjust="spacingAndGlyphs" textLength="50.6958" x="455.2684" y="1143.4003">release</text><text fill="#000000" font-family="sans-serif" font-size="11.9284" lengthAdjust="spacingAndGlyphs" textLength="107.3559" x="421.9682" y="1167.695">释放申请的动态资源</text><rect fill="#FEFECE" filter="url(#f18bihc6bteyth)" height="49.9658" rx="12.4254" ry="12.4254" style="stroke: #A80036; stroke-width: 1.4910536779324057;" width="91.4513" x="434.8907" y="1210.9996"/><line style="stroke: #A80036; stroke-width: 1.4910536779324057;" x1="434.8907" x2="526.3419" y1="1237.1397" y2="1237.1397"/><text fill="#000000" font-family="sans-serif" font-size="13.9165" lengthAdjust="spacingAndGlyphs" textLength="41.7495" x="459.7416" y="1228.8874">return</text><text fill="#000000" font-family="sans-serif" font-size="11.9284" lengthAdjust="spacingAndGlyphs" textLength="71.5706" x="439.8608" y="1253.1821">返回分析结果</text><rect fill="#FEFECE" filter="url(#f18bihc6bteyth)" height="136.4159" rx="12.4254" ry="12.4254" style="stroke: #A80036; stroke-width: 1.4910536779324057;" width="818.0915" x="71.5706" y="203.0473"/><rect fill="#FFFFFF" height="71.5706" rx="12.4254" ry="12.4254" style="stroke: #FFFFFF; stroke-width: 0.9940357852882704;" width="812.1272" x="74.5527" y="264.9105"/><line style="stroke: #A80036; stroke-width: 1.4910536779324057;" x1="71.5706" x2="889.662" y1="261.9284" y2="261.9284"/><line style="stroke: #A80036; stroke-width: 1.4910536779324057;" x1="71.5706" x2="889.662" y1="229.1874" y2="229.1874"/><text fill="#000000" font-family="sans-serif" font-size="13.9165" lengthAdjust="spacingAndGlyphs" textLength="20.8748" x="470.1789" y="220.9351">init</text><text fill="#000000" font-family="sans-serif" font-size="11.9284" lengthAdjust="spacingAndGlyphs" textLength="155.0696" x="76.5408" y="240.2596">预测分析程序的初始化工作，</text><text fill="#000000" font-family="sans-serif" font-size="11.9284" lengthAdjust="spacingAndGlyphs" textLength="286.2823" x="76.5408" y="254.1451">创建文法的终结符、非终结符、产生式、预测分析表等</text><ellipse cx="92.4453" cy="299.7018" fill="#000000" filter="url(#f18bihc6bteyth)" rx="9.9404" ry="9.9404" style="stroke: none; stroke-width: 0.9940357852882704;"/><rect fill="#FEFECE" filter="url(#f18bihc6bteyth)" height="49.9658" rx="12.4254" ry="12.4254" style="stroke: #A80036; stroke-width: 1.4910536779324057;" width="151.0934" x="120.2783" y="274.8509"/><line style="stroke: #A80036; stroke-width: 1.4910536779324057;" x1="120.2783" x2="271.3718" y1="300.9909" y2="300.9909"/><text fill="#000000" font-family="sans-serif" font-size="13.9165" lengthAdjust="spacingAndGlyphs" textLength="18.8867" x="186.3817" y="292.7387">VT</text><text fill="#000000" font-family="sans-serif" font-size="11.9284" lengthAdjust="spacingAndGlyphs" textLength="131.2127" x="125.2485" y="317.0333">定义出文法的所有终结符</text><rect fill="#FEFECE" filter="url(#f18bihc6bteyth)" height="49.9658" rx="12.4254" ry="12.4254" style="stroke: #A80036; stroke-width: 1.4910536779324057;" width="163.0219" x="289.2644" y="274.8509"/><line style="stroke: #A80036; stroke-width: 1.4910536779324057;" x1="289.2644" x2="452.2863" y1="300.9909" y2="300.9909"/><text fill="#000000" font-family="sans-serif" font-size="13.9165" lengthAdjust="spacingAndGlyphs" textLength="19.8807" x="360.835" y="292.7387">VN</text><text fill="#000000" font-family="sans-serif" font-size="11.9284" lengthAdjust="spacingAndGlyphs" textLength="143.1412" x="294.2346" y="317.0333">定义出文法的所有非终结符</text><rect fill="#FEFECE" filter="url(#f18bihc6bteyth)" height="49.9658" rx="12.4254" ry="12.4254" style="stroke: #A80036; stroke-width: 1.4910536779324057;" width="115.3082" x="470.1789" y="274.8509"/><line style="stroke: #A80036; stroke-width: 1.4910536779324057;" x1="470.1789" x2="585.4871" y1="300.9909" y2="300.9909"/><text fill="#000000" font-family="sans-serif" font-size="13.9165" lengthAdjust="spacingAndGlyphs" textLength="73.5586" x="491.0537" y="292.7387">Production</text><text fill="#000000" font-family="sans-serif" font-size="11.9284" lengthAdjust="spacingAndGlyphs" textLength="95.4274" x="475.1491" y="317.0333">构造所有的产生式</text><rect fill="#FEFECE" filter="url(#f18bihc6bteyth)" height="49.9658" rx="12.4254" ry="12.4254" style="stroke: #A80036; stroke-width: 1.4910536779324057;" width="115.3082" x="603.3797" y="274.8509"/><line style="stroke: #A80036; stroke-width: 1.4910536779324057;" x1="603.3797" x2="718.6879" y1="300.9909" y2="300.9909"/><text fill="#000000" font-family="sans-serif" font-size="13.9165" lengthAdjust="spacingAndGlyphs" textLength="93.4394" x="614.3141" y="292.7387">AnalysisTable</text><text fill="#000000" font-family="sans-serif" font-size="11.9284" lengthAdjust="spacingAndGlyphs" textLength="95.4274" x="608.3499" y="317.0333">定义出预测分析表</text><rect fill="#FEFECE" filter="url(#f18bihc6bteyth)" height="49.9658" rx="12.4254" ry="12.4254" style="stroke: #A80036; stroke-width: 1.4910536779324057;" width="115.3082" x="736.5805" y="274.8509"/><line style="stroke: #A80036; stroke-width: 1.4910536779324057;" x1="736.5805" x2="851.8887" y1="300.9909" y2="300.9909"/><text fill="#000000" font-family="sans-serif" font-size="13.9165" lengthAdjust="spacingAndGlyphs" textLength="95.4274" x="746.5209" y="292.7387">AnalysisStack</text><text fill="#000000" font-family="sans-serif" font-size="11.9284" lengthAdjust="spacingAndGlyphs" textLength="35.7853" x="741.5507" y="317.0333">分析栈</text><!--MD5=[4861efbe0d8172b785bcd673ff9437a2]
link *start*init to VT--><path d="M102.541,299.7018 C106.6404,299.7018 110.7398,299.7018 114.8392,299.7018 " fill="none" id="*start*init-&gt;VT" style="stroke: #A80036; stroke-width: 0.9940357852882704;"/><polygon fill="#A80036" points="120.0318,299.7018,111.0855,295.7256,115.0616,299.7018,111.0855,303.6779,120.0318,299.7018" style="stroke: #A80036; stroke-width: 0.9940357852882704;"/><!--MD5=[0671dea95fdcb55a05e1419195ea8180]
link VT to VN--><path d="M271.6819,299.7018 C275.7644,299.7018 279.8469,299.7018 283.9294,299.7018 " fill="none" id="VT-&gt;VN" style="stroke: #A80036; stroke-width: 0.9940357852882704;"/><polygon fill="#A80036" points="289.1014,299.7018,280.1551,295.7256,284.1312,299.7018,280.1551,303.6779,289.1014,299.7018" style="stroke: #A80036; stroke-width: 0.9940357852882704;"/><!--MD5=[94c4efbaf5372c41dff4d60d5d236058]
link VN to Production--><path d="M452.3718,299.7018 C456.6093,299.7018 460.8459,299.7018 465.0835,299.7018 " fill="none" id="VN-&gt;Production" style="stroke: #A80036; stroke-width: 0.9940357852882704;"/><polygon fill="#A80036" points="470.0577,299.7018,461.1113,295.7256,465.0875,299.7018,461.1113,303.6779,470.0577,299.7018" style="stroke: #A80036; stroke-width: 0.9940357852882704;"/><!--MD5=[14e1a29620db46fd77035878d4211250]
link Production to AnalysisTable--><path d="M585.5885,299.7018 C589.8241,299.7018 594.0606,299.7018 598.2972,299.7018 " fill="none" id="Production-&gt;AnalysisTable" style="stroke: #A80036; stroke-width: 0.9940357852882704;"/><polygon fill="#A80036" points="603.2704,299.7018,594.3241,295.7256,598.3002,299.7018,594.3241,303.6779,603.2704,299.7018" style="stroke: #A80036; stroke-width: 0.9940357852882704;"/><!--MD5=[5bb86263505a70820aebf1118f7abe06]
link AnalysisTable to AnalysisStack--><path d="M718.7893,299.7018 C723.0249,299.7018 727.2614,299.7018 731.498,299.7018 " fill="none" id="AnalysisTable-&gt;AnalysisStack" style="stroke: #A80036; stroke-width: 0.9940357852882704;"/><polygon fill="#A80036" points="736.4712,299.7018,727.5249,295.7256,731.501,299.7018,727.5249,303.6779,736.4712,299.7018" style="stroke: #A80036; stroke-width: 0.9940357852882704;"/><rect fill="#FEFECE" filter="url(#f18bihc6bteyth)" height="544.0016" rx="12.4254" ry="12.4254" style="stroke: #A80036; stroke-width: 1.4910536779324057;" width="927.4354" x="16.8986" y="545.9897"/><rect fill="#FFFFFF" height="493.0417" rx="12.4254" ry="12.4254" style="stroke: #FFFFFF; stroke-width: 0.9940357852882704;" width="921.4712" x="19.8807" y="593.9674"/><line style="stroke: #A80036; stroke-width: 1.4910536779324057;" x1="16.8986" x2="944.334" y1="590.9853" y2="590.9853"/><line style="stroke: #A80036; stroke-width: 1.4910536779324057;" x1="16.8986" x2="944.334" y1="572.1297" y2="572.1297"/><text fill="#000000" font-family="sans-serif" font-size="13.9165" lengthAdjust="spacingAndGlyphs" textLength="40.7555" x="460.2386" y="563.8775">check</text><text fill="#000000" font-family="sans-serif" font-size="11.9284" lengthAdjust="spacingAndGlyphs" textLength="214.7117" x="21.8688" y="583.202">根据栈顶以及读入的符号进行一定的判断</text><ellipse cx="472.167" cy="613.8482" fill="#000000" filter="url(#f18bihc6bteyth)" rx="9.9404" ry="9.9404" style="stroke: none; stroke-width: 0.9940357852882704;"/><ellipse cx="472.167" cy="1065.1404" fill="none" filter="url(#f18bihc6bteyth)" rx="9.9404" ry="9.9404" style="stroke: #000000; stroke-width: 0.9940357852882704;"/><ellipse cx="472.664" cy="1065.6374" fill="#000000" rx="5.9642" ry="5.9642" style="stroke: none; stroke-width: 0.9940357852882704;"/><rect fill="#FEFECE" filter="url(#f18bihc6bteyth)" height="330.315" rx="12.4254" ry="12.4254" style="stroke: #A80036; stroke-width: 1.4910536779324057;" width="441.3519" x="27.833" y="674.4843"/><rect fill="#FFFFFF" height="298.2107" rx="12.4254" ry="12.4254" style="stroke: #FFFFFF; stroke-width: 0.9940357852882704;" width="435.3877" x="30.8151" y="703.6065"/><line style="stroke: #A80036; stroke-width: 1.4910536779324057;" x1="27.833" x2="469.1849" y1="700.6244" y2="700.6244"/><text fill="#000000" font-family="sans-serif" font-size="13.9165" lengthAdjust="spacingAndGlyphs" textLength="29.8211" x="233.5984" y="692.3721">isVT</text><ellipse cx="271.3718" cy="723.4872" fill="#000000" filter="url(#f18bihc6bteyth)" rx="9.9404" ry="9.9404" style="stroke: none; stroke-width: 0.9940357852882704;"/><rect fill="#FEFECE" filter="url(#f18bihc6bteyth)" height="49.9658" rx="12.4254" ry="12.4254" style="stroke: #A80036; stroke-width: 1.4910536779324057;" width="242.5447" x="48.7078" y="769.2128"/><line style="stroke: #A80036; stroke-width: 1.4910536779324057;" x1="48.7078" x2="291.2525" y1="795.3529" y2="795.3529"/><text fill="#000000" font-family="sans-serif" font-size="13.9165" lengthAdjust="spacingAndGlyphs" textLength="46.7197" x="146.6203" y="787.1006">isXeqa</text><text fill="#000000" font-family="sans-serif" font-size="11.9284" lengthAdjust="spacingAndGlyphs" textLength="222.664" x="53.6779" y="811.3953">如果X为终结符同时等于读入的词法分析项</text><rect fill="#FEFECE" filter="url(#f18bihc6bteyth)" height="49.9658" rx="12.4254" ry="12.4254" style="stroke: #A80036; stroke-width: 1.4910536779324057;" width="125.2485" x="38.7674" y="854.6999"/><line style="stroke: #A80036; stroke-width: 1.4910536779324057;" x1="38.7674" x2="164.0159" y1="880.84" y2="880.84"/><text fill="#000000" font-family="sans-serif" font-size="13.9165" lengthAdjust="spacingAndGlyphs" textLength="35.7853" x="83.499" y="872.5877">isEnd</text><text fill="#000000" font-family="sans-serif" font-size="11.9284" lengthAdjust="spacingAndGlyphs" textLength="105.3678" x="43.7376" y="896.8824">如果是句子终止符#</text><ellipse cx="101.3917" cy="965.0379" fill="none" filter="url(#f18bihc6bteyth)" rx="9.9404" ry="9.9404" style="stroke: #000000; stroke-width: 0.9940357852882704;"/><ellipse cx="101.8887" cy="965.5349" fill="#000000" rx="5.9642" ry="5.9642" style="stroke: none; stroke-width: 0.9940357852882704;"/><rect fill="#FEFECE" filter="url(#f18bihc6bteyth)" height="49.9658" rx="12.4254" ry="12.4254" style="stroke: #A80036; stroke-width: 1.4910536779324057;" width="113.3201" x="181.9085" y="854.6999"/><line style="stroke: #A80036; stroke-width: 1.4910536779324057;" x1="181.9085" x2="295.2286" y1="880.84" y2="880.84"/><text fill="#000000" font-family="sans-serif" font-size="13.9165" lengthAdjust="spacingAndGlyphs" textLength="48.7078" x="214.2147" y="872.5877">notEnd</text><text fill="#000000" font-family="sans-serif" font-size="11.9284" lengthAdjust="spacingAndGlyphs" textLength="93.4394" x="186.8787" y="896.8824">不是句子终止符#</text><rect fill="#FEFECE" filter="url(#f18bihc6bteyth)" height="49.9658" rx="12.4254" ry="12.4254" style="stroke: #A80036; stroke-width: 1.4910536779324057;" width="139.165" x="168.9861" y="940.187"/><line style="stroke: #A80036; stroke-width: 1.4910536779324057;" x1="168.9861" x2="308.1511" y1="966.327" y2="966.327"/><text fill="#000000" font-family="sans-serif" font-size="13.9165" lengthAdjust="spacingAndGlyphs" textLength="57.6541" x="209.7416" y="958.0748">advance</text><text fill="#000000" font-family="sans-serif" font-size="11.9284" lengthAdjust="spacingAndGlyphs" textLength="119.2843" x="173.9563" y="982.3695">读入下一个词法分析项</text><rect fill="#FEFECE" filter="url(#f18bihc6bteyth)" height="49.9658" rx="12.4254" ry="12.4254" style="stroke: #A80036; stroke-width: 1.4910536779324057;" width="127.2366" x="309.1451" y="769.2128"/><line style="stroke: #A80036; stroke-width: 1.4910536779324057;" x1="309.1451" x2="436.3817" y1="795.3529" y2="795.3529"/><text fill="#000000" font-family="sans-serif" font-size="13.9165" lengthAdjust="spacingAndGlyphs" textLength="59.6421" x="342.9423" y="787.1006">notXeqa</text><text fill="#000000" font-family="sans-serif" font-size="11.9284" lengthAdjust="spacingAndGlyphs" textLength="107.3559" x="314.1153" y="811.3953">不同，此时语法错误</text><!--MD5=[c9b1c6644863db780c70b9379534c62b]
link *start*isVT to isXeqa--><path d="M263.4155,729.8629 C251.8221,737.7059 229.494,752.8103 209.5716,766.2874 " fill="none" id="*start*isVT-&gt;isXeqa" style="stroke: #A80036; stroke-width: 0.9940357852882704;"/><polygon fill="#A80036" points="205.3618,769.1353,214.9998,767.4162,209.4786,766.3506,210.5442,760.8293,205.3618,769.1353" style="stroke: #A80036; stroke-width: 0.9940357852882704;"/><!--MD5=[ecac863e71e39dc4d220e36002b63fae]
link isXeqa to isEnd--><path d="M150.1412,819.2089 C142.1083,828.9892 132.7794,840.346 124.4462,850.4902 " fill="none" id="isXeqa-&gt;isEnd" style="stroke: #A80036; stroke-width: 0.9940357852882704;"/><polygon fill="#A80036" points="121.1857,854.4594,129.9362,850.0691,124.34,850.6184,123.7906,845.0222,121.1857,854.4594" style="stroke: #A80036; stroke-width: 0.9940357852882704;"/><!--MD5=[38a2b1cabe984a817c38f8122d098962]
link isEnd to *end*isVT--><path d="M101.3917,904.6962 C101.3917,919.2315 101.3917,937.2502 101.3917,949.5961 " fill="none" id="isEnd-&gt;*end*isVT" style="stroke: #A80036; stroke-width: 0.9940357852882704;"/><polygon fill="#A80036" points="101.3917,954.8366,105.3678,945.8903,101.3917,949.8664,97.4155,945.8903,101.3917,954.8366" style="stroke: #A80036; stroke-width: 0.9940357852882704;"/><!--MD5=[c6c2725e641b09b63fcbe1a24e989665]
link isXeqa to notEnd--><path d="M189.8191,819.2089 C197.8519,828.9892 207.1809,840.346 215.5139,850.4902 " fill="none" id="isXeqa-&gt;notEnd" style="stroke: #A80036; stroke-width: 0.9940357852882704;"/><polygon fill="#A80036" points="218.7744,854.4594,216.1702,845.0219,215.6204,850.6181,210.0242,850.0683,218.7744,854.4594" style="stroke: #A80036; stroke-width: 0.9940357852882704;"/><!--MD5=[702f820676ea7310996c640075524bec]
link notEnd to advance--><path d="M238.5686,904.6962 C238.5686,914.1297 238.5686,925.0306 238.5686,934.8957 " fill="none" id="notEnd-&gt;advance" style="stroke: #A80036; stroke-width: 0.9940357852882704;"/><polygon fill="#A80036" points="238.5686,939.9467,242.5447,931.0004,238.5686,934.9766,234.5924,931.0004,238.5686,939.9467" style="stroke: #A80036; stroke-width: 0.9940357852882704;"/><!--MD5=[de735014bb3372cce42839e132726482]
link *start*isVT to notXeqa--><path d="M279.328,729.8629 C290.9215,737.7059 313.2495,752.8103 333.172,766.2874 " fill="none" id="*start*isVT-&gt;notXeqa" style="stroke: #A80036; stroke-width: 0.9940357852882704;"/><polygon fill="#A80036" points="337.3817,769.1353,332.1993,760.8293,333.2649,766.3506,327.7437,767.4162,337.3817,769.1353" style="stroke: #A80036; stroke-width: 0.9940357852882704;"/><rect fill="#FEFECE" filter="url(#f18bihc6bteyth)" height="360.1361" rx="12.4254" ry="12.4254" style="stroke: #A80036; stroke-width: 1.4910536779324057;" width="419.4831" x="487.0775" y="659.5738"/><rect fill="#FFFFFF" height="328.0318" rx="12.4254" ry="12.4254" style="stroke: #FFFFFF; stroke-width: 0.9940357852882704;" width="413.5189" x="490.0596" y="688.6959"/><line style="stroke: #A80036; stroke-width: 1.4910536779324057;" x1="487.0775" x2="906.5606" y1="685.7138" y2="685.7138"/><text fill="#000000" font-family="sans-serif" font-size="13.9165" lengthAdjust="spacingAndGlyphs" textLength="30.8151" x="681.4115" y="677.4616">isVN</text><ellipse cx="576.0437" cy="723.4872" fill="#000000" filter="url(#f18bihc6bteyth)" rx="9.9404" ry="9.9404" style="stroke: none; stroke-width: 0.9940357852882704;"/><rect fill="#FEFECE" filter="url(#f18bihc6bteyth)" height="49.9658" rx="12.4254" ry="12.4254" style="stroke: #A80036; stroke-width: 1.4910536779324057;" width="241.5507" x="604.3738" y="698.6363"/><line style="stroke: #A80036; stroke-width: 1.4910536779324057;" x1="604.3738" x2="845.9245" y1="724.7763" y2="724.7763"/><text fill="#000000" font-family="sans-serif" font-size="13.9165" lengthAdjust="spacingAndGlyphs" textLength="100.3976" x="674.9503" y="716.5241">GetPorduction</text><text fill="#000000" font-family="sans-serif" font-size="11.9284" lengthAdjust="spacingAndGlyphs" textLength="221.67" x="609.3439" y="740.8188">根据分析表M[X, a]得到对应存储的产生式</text><rect fill="#FEFECE" filter="url(#f18bihc6bteyth)" height="49.9658" rx="12.4254" ry="12.4254" style="stroke: #A80036; stroke-width: 1.4910536779324057;" width="103.3797" x="600.8946" y="784.1234"/><line style="stroke: #A80036; stroke-width: 1.4910536779324057;" x1="600.8946" x2="704.2744" y1="810.2634" y2="810.2634"/><text fill="#000000" font-family="sans-serif" font-size="13.9165" lengthAdjust="spacingAndGlyphs" textLength="44.7316" x="630.2187" y="802.0112">isExist</text><text fill="#000000" font-family="sans-serif" font-size="11.9284" lengthAdjust="spacingAndGlyphs" textLength="83.499" x="605.8648" y="826.3058">如果存在产生式</text><rect fill="#FEFECE" filter="url(#f18bihc6bteyth)" height="49.9658" rx="12.4254" ry="12.4254" style="stroke: #A80036; stroke-width: 1.4910536779324057;" width="151.0934" x="722.167" y="784.1234"/><line style="stroke: #A80036; stroke-width: 1.4910536779324057;" x1="722.167" x2="873.2604" y1="810.2634" y2="810.2634"/><text fill="#000000" font-family="sans-serif" font-size="13.9165" lengthAdjust="spacingAndGlyphs" textLength="57.6541" x="768.8867" y="802.0112">notExist</text><text fill="#000000" font-family="sans-serif" font-size="11.9284" lengthAdjust="spacingAndGlyphs" textLength="131.2127" x="727.1372" y="826.3058">不存在产生式，语法错误</text><rect fill="#FEFECE" filter="url(#f18bihc6bteyth)" height="49.9658" rx="12.4254" ry="12.4254" style="stroke: #A80036; stroke-width: 1.4910536779324057;" width="309.1451" x="498.0119" y="869.6105"/><line style="stroke: #A80036; stroke-width: 1.4910536779324057;" x1="498.0119" x2="807.1571" y1="895.7505" y2="895.7505"/><text fill="#000000" font-family="sans-serif" font-size="13.9165" lengthAdjust="spacingAndGlyphs" textLength="58.6481" x="623.2604" y="887.4983">isEsplion</text><text fill="#000000" font-family="sans-serif" font-size="11.9284" lengthAdjust="spacingAndGlyphs" textLength="289.2644" x="502.9821" y="911.7929">产生式是否为 X-&gt;esplion 即是否为空，空什么都不做</text><rect fill="#FEFECE" filter="url(#f18bihc6bteyth)" height="49.9658" rx="12.4254" ry="12.4254" style="stroke: #A80036; stroke-width: 1.4910536779324057;" width="174.9503" x="565.1093" y="955.0975"/><line style="stroke: #A80036; stroke-width: 1.4910536779324057;" x1="565.1093" x2="740.0596" y1="981.2376" y2="981.2376"/><text fill="#000000" font-family="sans-serif" font-size="13.9165" lengthAdjust="spacingAndGlyphs" textLength="32.8032" x="636.1829" y="972.9853">push</text><text fill="#000000" font-family="sans-serif" font-size="11.9284" lengthAdjust="spacingAndGlyphs" textLength="155.0696" x="570.0795" y="997.28">根据产生式将符号逆压栈即可</text><!--MD5=[8e55b7cf616bcb661a4076923546a110]
link *start*isVN to GetPorduction--><path d="M586.2365,723.4872 C590.5266,723.4872 594.8168,723.4872 599.1074,723.4872 " fill="none" id="*start*isVN-&gt;GetPorduction" style="stroke: #A80036; stroke-width: 0.9940357852882704;"/><polygon fill="#A80036" points="604.1431,723.4872,595.1968,719.5111,599.173,723.4872,595.1968,727.4633,604.1431,723.4872" style="stroke: #A80036; stroke-width: 0.9940357852882704;"/><!--MD5=[24aafb9e4c95a2d71868b6f93c339056]
link GetPorduction to isExist--><path d="M704.16,748.6323 C695.661,758.4126 685.7922,769.7695 676.9751,779.9136 " fill="none" id="GetPorduction-&gt;isExist" style="stroke: #A80036; stroke-width: 0.9940357852882704;"/><polygon fill="#A80036" points="673.5258,783.8828,682.3954,779.7383,676.786,780.1313,676.393,774.522,673.5258,783.8828" style="stroke: #A80036; stroke-width: 0.9940357852882704;"/><!--MD5=[bc2edb450bd59c8c603823a94b640cf3]
link GetPorduction to notExist--><path d="M746.1382,748.6323 C754.6372,758.4126 764.506,769.7695 773.3231,779.9136 " fill="none" id="GetPorduction-&gt;notExist" style="stroke: #A80036; stroke-width: 0.9940357852882704;"/><polygon fill="#A80036" points="776.7724,783.8828,773.9052,774.522,773.5122,780.1313,767.9028,779.7383,776.7724,783.8828" style="stroke: #A80036; stroke-width: 0.9940357852882704;"/><!--MD5=[a31ee2926823444103b7347e1c2bdaf5]
link isExist to isEsplion--><path d="M652.5845,834.1194 C652.5845,843.5528 652.5845,854.4544 652.5845,864.3192 " fill="none" id="isExist-&gt;isEsplion" style="stroke: #A80036; stroke-width: 0.9940357852882704;"/><polygon fill="#A80036" points="652.5845,869.3699,656.5606,860.4236,652.5845,864.3997,648.6083,860.4236,652.5845,869.3699" style="stroke: #A80036; stroke-width: 0.9940357852882704;"/><!--MD5=[869cf212da31060bc58b63266d5c81d2]
link isEsplion to push--><path d="M652.5845,919.6068 C652.5845,929.0403 652.5845,939.9412 652.5845,949.8062 " fill="none" id="isEsplion-&gt;push" style="stroke: #A80036; stroke-width: 0.9940357852882704;"/><polygon fill="#A80036" points="652.5845,954.8573,656.5606,945.911,652.5845,949.8871,648.6083,945.911,652.5845,954.8573" style="stroke: #A80036; stroke-width: 0.9940357852882704;"/><!--MD5=[a577fd9711179b4bb7e80bf2eacdf6f3]
link *start*check to isVT--><path d="M465.2276,621.7816 C455.8847,631.1245 437.8907,649.1185 416.1004,670.9088 " fill="none" id="*start*check-&gt;isVT" style="stroke: #A80036; stroke-width: 0.9940357852882704;"/><polygon fill="#A80036" points="412.5716,674.4376,421.7091,670.9232,416.086,670.9232,416.086,665.3001,412.5716,674.4376" style="stroke: #A80036; stroke-width: 0.9940357852882704;"/><!--MD5=[f7df498f9cf2de8fad12ff875019149c]
link *start*check to isVN--><path d="M479.1372,621.7816 C486.169,628.7826 498.0795,640.6404 512.8181,655.3134 " fill="none" id="*start*check-&gt;isVN" style="stroke: #A80036; stroke-width: 0.9940357852882704;"/><polygon fill="#A80036" points="516.6243,659.1026,513.0877,649.9736,513.1013,655.5967,507.4782,655.6103,516.6243,659.1026" style="stroke: #A80036; stroke-width: 0.9940357852882704;"/><!--MD5=[3631e212eef6827769c70686cf43503c]
link isVT to *end*check--><path d="M412.8181,1004.7973 C433.7575,1025.737 451.5229,1043.5019 462.0149,1053.994 " fill="none" id="isVT-&gt;*end*check" style="stroke: #A80036; stroke-width: 0.9940357852882704;"/><polygon fill="#A80036" points="465.5437,1057.5229,462.0295,1048.3853,462.0294,1054.0084,456.4062,1054.0083,465.5437,1057.5229" style="stroke: #A80036; stroke-width: 0.9940357852882704;"/><!--MD5=[1a4eed94a6a67e83aa2614589232fa8b]
link isVN to *end*check--><path d="M517.0885,1019.4234 C502.5527,1033.8951 490.4066,1045.9875 482.4245,1053.9341 " fill="none" id="isVN-&gt;*end*check" style="stroke: #A80036; stroke-width: 0.9940357852882704;"/><polygon fill="#A80036" points="478.8489,1057.4945,487.9938,1053.9992,482.3707,1053.9874,482.3825,1048.3643,478.8489,1057.4945" style="stroke: #A80036; stroke-width: 0.9940357852882704;"/><!--MD5=[73fc8ba90a2777fea73ddb36171c1837]
link *start*PredictiveAnalysis to init--><path d="M53.4916,271.1388 C57.7887,271.1388 62.0859,271.1388 66.383,271.1388 " fill="none" id="*start*PredictiveAnalysis-&gt;init" style="stroke: #A80036; stroke-width: 0.9940357852882704;"/><polygon fill="#A80036" points="71.4274,271.1388,62.4811,267.1626,66.4573,271.1388,62.4811,275.1149,71.4274,271.1388" style="stroke: #A80036; stroke-width: 0.9940357852882704;"/><!--MD5=[21405cbe9d3cbe2a728f58b0f1cb7f60]
link init to AnalysisStackInit--><path d="M480.6163,339.5841 C480.6163,350.1597 480.6163,360.5831 480.6163,369.6696 " fill="none" id="init-&gt;AnalysisStackInit" style="stroke: #A80036; stroke-width: 0.9940357852882704;"/><polygon fill="#A80036" points="480.6163,374.8555,484.5924,365.9092,480.6163,369.8853,476.6402,365.9092,480.6163,374.8555" style="stroke: #A80036; stroke-width: 0.9940357852882704;"/><!--MD5=[1ffb52078b1b4423488e1861c68115ef]
link AnalysisStackInit to pop--><path d="M480.6163,425.0116 C480.6163,434.445 480.6163,445.3465 480.6163,455.2114 " fill="none" id="AnalysisStackInit-&gt;pop" style="stroke: #A80036; stroke-width: 0.9940357852882704;"/><polygon fill="#A80036" points="480.6163,460.2621,484.5924,451.3157,480.6163,455.2919,476.6402,451.3157,480.6163,460.2621" style="stroke: #A80036; stroke-width: 0.9940357852882704;"/><!--MD5=[baf12571f4dff00b7876c1ade6dc741c]
link pop to check--><path d="M476.9175,510.3833 C476.3658,518.768 475.8907,529.0265 475.4901,540.6467 " fill="none" id="pop-&gt;check" style="stroke: #A80036; stroke-width: 0.9940357852882704;"/><polygon fill="#A80036" points="475.3241,545.7084,479.592,536.8975,475.4874,540.7409,471.644,536.6362,475.3241,545.7084" style="stroke: #A80036; stroke-width: 0.9940357852882704;"/><!--MD5=[8b6532096c5af3f970a27560aad0662c]
link check to pop--><path d="M485.9085,545.7084 C485.5507,534.3535 485.1252,524.1507 484.6312,515.5374 " fill="none" id="check-&gt;pop" style="stroke: #A80036; stroke-width: 0.9940357852882704;"/><polygon fill="#A80036" points="484.3151,510.3833,480.8933,519.556,484.619,515.3442,488.8307,519.0698,484.3151,510.3833" style="stroke: #A80036; stroke-width: 0.9940357852882704;"/><!--MD5=[0642d2134e160975873b55323b47d830]
link check to release--><path d="M480.6163,1089.8982 C480.6163,1101.3127 480.6163,1111.5652 480.6163,1120.2143 " fill="none" id="check-&gt;release" style="stroke: #A80036; stroke-width: 0.9940357852882704;"/><polygon fill="#A80036" points="480.6163,1125.3873,484.5924,1116.441,480.6163,1120.4171,476.6402,1116.441,480.6163,1125.3873" style="stroke: #A80036; stroke-width: 0.9940357852882704;"/><!--MD5=[ba00d44553b81e882d15a9b583cdc7bc]
link release to return--><path d="M480.6163,1175.5089 C480.6163,1184.9424 480.6163,1195.8433 480.6163,1205.7083 " fill="none" id="release-&gt;return" style="stroke: #A80036; stroke-width: 0.9940357852882704;"/><polygon fill="#A80036" points="480.6163,1210.7594,484.5924,1201.813,480.6163,1205.7892,476.6402,1201.813,480.6163,1210.7594" style="stroke: #A80036; stroke-width: 0.9940357852882704;"/><!--MD5=[3a49557cc214808664416704f4135b4e]
link *start to main--><path d="M342.1352,46.7197 C351.9036,46.7197 361.672,46.7197 371.4414,46.7197 " fill="none" id="*start-&gt;main" style="stroke: #A80036; stroke-width: 0.9940357852882704;"/><polygon fill="#A80036" points="376.5497,46.7197,367.6034,42.7435,371.5795,46.7197,367.6034,50.6958,376.5497,46.7197" style="stroke: #A80036; stroke-width: 0.9940357852882704;"/><!--MD5=[9dcea69b8be54df79efe6717d8492c53]
link main to PredictiveAnalysis--><path d="M494.0358,85.6561 C494.0358,100.338 494.0358,118.7475 494.0358,139.9503 " fill="none" id="main-&gt;PredictiveAnalysis" style="stroke: #A80036; stroke-width: 0.9940357852882704;"/><polygon fill="#A80036" points="494.0358,145.1093,498.0119,136.163,494.0358,140.1392,490.0596,136.163,494.0358,145.1093" style="stroke: #A80036; stroke-width: 0.9940357852882704;"/><!--MD5=[a7e45a7e2b76a7d280b02fdfa0a228c7]
link PredictiveAnalysis to end--><path d="M494.0358,1275.4771 C494.0358,1296.7793 494.0358,1315.1948 494.0358,1329.7392 " fill="none" id="PredictiveAnalysis-&gt;end" style="stroke: #A80036; stroke-width: 0.9940357852882704;"/><polygon fill="#A80036" points="494.0358,1334.9206,498.0119,1325.9743,494.0358,1329.9504,490.0596,1325.9743,494.0358,1334.9206" style="stroke: #A80036; stroke-width: 0.9940357852882704;"/><!--MD5=[1bb2d46491ec20157ee310d1c4a6ef90]
link end to *end--><path d="M629.328,1366.7992 C639.1252,1366.7992 648.9235,1366.7992 658.7217,1366.7992 " fill="none" id="end-&gt;*end" style="stroke: #A80036; stroke-width: 0.9940357852882704;"/><polygon fill="#A80036" points="663.8449,1366.7992,654.8986,1362.8231,658.8748,1366.7992,654.8986,1370.7753,663.8449,1366.7992" style="stroke: #A80036; stroke-width: 0.9940357852882704;"/><!--MD5=[20e8e773641f8f9b556b9da240bdd6c3]
@startuml
hide empty description
scale 1000 width
[*] -> main
main - -> PredictiveAnalysis
PredictiveAnalysis - -> end
end -> [*]

main: 调用预测分析程序的一个项目入口程序，\n这样将预测分析程序独立，\n便于将其扩展到后续的使用中

PredictiveAnalysis: 预测分析程序

end: 将调用预测分析程序的结果输出到标准输出中，\n即判断所给词法分析是否符合一定的语法结构

state PredictiveAnalysis{
    [*] -> init
    init - -> AnalysisStackInit
    AnalysisStackInit - -> pop
    pop - -> check
    check - -> pop
    check - -> release
    release - -> return
    
    init: 预测分析程序的初始化工作，\n创建文法的终结符、非终结符、产生式、预测分析表等
    AnalysisStackInit: 分析栈初始化，压入句子终结符#和文法开始符号
    pop: X = pop()，将分析栈顶的符号弹出，记为X
    check: 根据栈顶以及读入的符号进行一定的判断
    release: 释放申请的动态资源
    return: 返回分析结果
    state init{
        [*] -> VT
        VT -> VN
        VN -> Production
        Production -> AnalysisTable
        AnalysisTable -> AnalysisStack

        VT: 定义出文法的所有终结符
        VN: 定义出文法的所有非终结符
        Production: 构造所有的产生式
        AnalysisTable: 定义出预测分析表
        AnalysisStack: 分析栈
    }
    state check{
        [*] - -> isVT
        [*] - -> isVN
        isVT - -> [*]
        isVN - -> [*]

        state isVT{
            [*] - -> isXeqa
            isXeqa - -> isEnd
            isEnd - -> [*]
            isXeqa - -> notEnd
            notEnd - -> advance
            [*] - -> notXeqa

            isXeqa: 如果X为终结符同时等于读入的词法分析项
            isEnd: 如果是句子终止符#
            notEnd: 不是句子终止符#
            advance: 读入下一个词法分析项
            notXeqa: 不同，此时语法错误
        }
        state isVN{
            [*] -> GetPorduction
            GetPorduction - -> isExist
            GetPorduction - -> notExist
            isExist - -> isEsplion
            isEsplion - -> push

            GetPorduction: 根据分析表M[X, a]得到对应存储的产生式
            isExist: 如果存在产生式
            notExist: 不存在产生式，语法错误
            isEsplion: 产生式是否为 X->esplion 即是否为空，空什么都不做
            push: 根据产生式将符号逆压栈即可

        }
    }
    
}
@enduml

PlantUML version 1.2020.08beta5(Unknown compile time)
(GPL source distribution)
Java Runtime: Java(TM) SE Runtime Environment
JVM: Java HotSpot(TM) 64-Bit Server VM
Java Version: 14.0.1+7
Operating System: Linux
Default Encoding: UTF-8
Language: en
Country: US
--></g></svg>