<svg xmlns="http://www.w3.org/2000/svg" xlink="http://www.w3.org/1999/xlink" contentscripttype="application/ecmascript" contentstyletype="text/css" height="978.7394px" preserveAspectRatio="none" style="width:1193px;height:978px;" version="1.1" viewBox="0 0 1193 978" width="1193.2267px" zoomAndPan="magnify"><defs><filter height="300%" id="f15tg35ubajram" width="300%" x="-1" y="-1"><feGaussianBlur result="blurOut" stdDeviation="2.257761053621825"></feGaussianBlur><feColorMatrix in="blurOut" result="blurOut2" type="matrix" values="0 0 0 0 0 0 0 0 0 0 0 0 0 0 0 0 0 0 .4 0"></feColorMatrix><feOffset dx="4.51552210724365" dy="4.51552210724365" in="blurOut2" result="blurOut3"></feOffset><feBlend in="SourceGraphic" in2="blurOut3" mode="normal"></feBlend></filter></defs><g><ellipse cx="593.2267" cy="20.3198" fill="#000000" filter="url(#f15tg35ubajram)" rx="11.2888" ry="11.2888" style="stroke: none; stroke-width: 1.1288805268109126;"></ellipse><ellipse cx="593.2267" cy="955.0329" fill="none" filter="url(#f15tg35ubajram)" rx="11.2888" ry="11.2888" style="stroke: #000000; stroke-width: 1.1288805268109126;"></ellipse><ellipse cx="593.7912" cy="955.5974" fill="#000000" rx="6.7733" ry="6.7733" style="stroke: none; stroke-width: 1.1288805268109126;"></ellipse><rect fill="#FEFECE" filter="url(#f15tg35ubajram)" height="776.1153" rx="14.111" ry="14.111" style="stroke: #A80036; stroke-width: 1.6933207902163687;" width="1172.9069" x="6.7733" y="99.3415"></rect><rect fill="#FFFFFF" height="712.3236" rx="14.111" ry="14.111" style="stroke: #FFFFFF; stroke-width: 1.1288805268109126;" width="1166.1336" x="10.1599" y="159.7465"></rect><line style="stroke: #A80036; stroke-width: 1.6933207902163687;" x1="6.7733" x2="1179.6802" y1="156.3599" y2="156.3599"></line><line style="stroke: #A80036; stroke-width: 1.6933207902163687;" x1="6.7733" x2="1179.6802" y1="132.2146" y2="132.2146"></line><text fill="#000000" font-family="sans-serif" font-size="15.8043" lengthAdjust="spacingAndGlyphs" textLength="33.8664" x="576.2935" y="123.0976">main</text><text fill="#000000" font-family="sans-serif" font-size="13.5466" lengthAdjust="spacingAndGlyphs" textLength="40.6397" x="12.4177" y="147.7389">主程序</text><ellipse cx="225.7761" cy="182.3241" fill="#000000" filter="url(#f15tg35ubajram)" rx="11.2888" ry="11.2888" style="stroke: none; stroke-width: 1.1288805268109126;"></ellipse><rect fill="#FEFECE" filter="url(#f15tg35ubajram)" height="45.1552" rx="14.111" ry="14.111" style="stroke: #A80036; stroke-width: 1.6933207902163687;" width="74.5061" x="188.523" y="234.2526"></rect><text fill="#000000" font-family="sans-serif" font-size="15.8043" lengthAdjust="spacingAndGlyphs" textLength="63.2173" x="194.1675" y="264.1498">读取参数</text><rect fill="#FEFECE" filter="url(#f15tg35ubajram)" height="45.1552" rx="14.111" ry="14.111" style="stroke: #A80036; stroke-width: 1.6933207902163687;" width="74.5061" x="283.349" y="234.2526"></rect><text fill="#000000" font-family="sans-serif" font-size="15.8043" lengthAdjust="spacingAndGlyphs" textLength="63.2173" x="288.9934" y="264.1498">设置参数</text><rect fill="#FEFECE" filter="url(#f15tg35ubajram)" height="45.1552" rx="14.111" ry="14.111" style="stroke: #A80036; stroke-width: 1.6933207902163687;" width="74.5061" x="378.175" y="234.2526"></rect><text fill="#000000" font-family="sans-serif" font-size="15.8043" lengthAdjust="spacingAndGlyphs" textLength="63.2173" x="383.8194" y="264.1498">确定路径</text><rect fill="#FEFECE" filter="url(#f15tg35ubajram)" height="45.1552" rx="14.111" ry="14.111" style="stroke: #A80036; stroke-width: 1.6933207902163687;" width="200.9407" x="473.0009" y="234.2526"></rect><text fill="#000000" font-family="sans-serif" font-size="15.8043" lengthAdjust="spacingAndGlyphs" textLength="189.6519" x="478.6453" y="264.1498">根据含有不同的参数来执行</text><rect fill="#FEFECE" filter="url(#f15tg35ubajram)" height="62.6628" rx="14.111" ry="14.111" style="stroke: #A80036; stroke-width: 1.6933207902163687;" width="320.6021" x="19.191" y="471.882"></rect><line style="stroke: #A80036; stroke-width: 1.6933207902163687;" x1="19.191" x2="339.793" y1="504.7551" y2="504.7551"></line><text fill="#000000" font-family="sans-serif" font-size="15.8043" lengthAdjust="spacingAndGlyphs" textLength="12.4177" x="173.2832" y="495.6381">_l</text><text fill="#000000" font-family="sans-serif" font-size="13.5466" lengthAdjust="spacingAndGlyphs" textLength="298.0245" x="24.8354" y="525.9238">设置参数为真，当读取文件信息时将读取所有信息</text><rect fill="#FEFECE" filter="url(#f15tg35ubajram)" height="62.6628" rx="14.111" ry="14.111" style="stroke: #A80036; stroke-width: 1.6933207902163687;" width="171.5898" x="360.1129" y="471.882"></rect><line style="stroke: #A80036; stroke-width: 1.6933207902163687;" x1="360.1129" x2="531.7027" y1="504.7551" y2="504.7551"></line><text fill="#000000" font-family="sans-serif" font-size="15.8043" lengthAdjust="spacingAndGlyphs" textLength="20.3198" x="435.7479" y="495.6381">_C</text><text fill="#000000" font-family="sans-serif" font-size="13.5466" lengthAdjust="spacingAndGlyphs" textLength="149.0122" x="365.7573" y="525.9238">当显示时，调用排序函数</text><rect fill="#FEFECE" filter="url(#f15tg35ubajram)" height="45.1552" rx="14.111" ry="14.111" style="stroke: #A80036; stroke-width: 1.6933207902163687;" width="56.444" x="545.2493" y="727.5734"></rect><text fill="#000000" font-family="sans-serif" font-size="15.8043" lengthAdjust="spacingAndGlyphs" textLength="31.6087" x="557.667" y="757.4706">显示</text><rect fill="#FEFECE" filter="url(#f15tg35ubajram)" height="45.1552" rx="14.111" ry="14.111" style="stroke: #A80036; stroke-width: 1.6933207902163687;" width="56.444" x="545.2493" y="813.3683"></rect><text fill="#000000" font-family="sans-serif" font-size="15.8043" lengthAdjust="spacingAndGlyphs" textLength="31.6087" x="557.667" y="843.2655">结束</text><rect fill="#FEFECE" filter="url(#f15tg35ubajram)" height="367.0218" rx="14.111" ry="14.111" style="stroke: #A80036; stroke-width: 1.6933207902163687;" width="298.0245" x="552.0226" y="320.0476"></rect><rect fill="#FFFFFF" height="327.3754" rx="14.111" ry="14.111" style="stroke: #FFFFFF; stroke-width: 1.1288805268109126;" width="291.2512" x="555.4092" y="356.3073"></rect><line style="stroke: #A80036; stroke-width: 1.6933207902163687;" x1="552.0226" x2="850.047" y1="352.9207" y2="352.9207"></line><text fill="#000000" font-family="sans-serif" font-size="15.8043" lengthAdjust="spacingAndGlyphs" textLength="18.0621" x="692.0038" y="343.8037">_a</text><rect fill="#FEFECE" filter="url(#f15tg35ubajram)" height="45.1552" rx="14.111" ry="14.111" style="stroke: #A80036; stroke-width: 1.6933207902163687;" width="74.5061" x="651.3641" y="367.5961"></rect><text fill="#000000" font-family="sans-serif" font-size="15.8043" lengthAdjust="spacingAndGlyphs" textLength="63.2173" x="657.0085" y="397.4933">打开目录</text><rect fill="#FEFECE" filter="url(#f15tg35ubajram)" height="45.1552" rx="14.111" ry="14.111" style="stroke: #A80036; stroke-width: 1.6933207902163687;" width="90.3104" x="643.4619" y="453.3911"></rect><text fill="#000000" font-family="sans-serif" font-size="15.8043" lengthAdjust="spacingAndGlyphs" textLength="79.0216" x="649.1063" y="483.2882">改变工作区</text><rect fill="#FEFECE" filter="url(#f15tg35ubajram)" height="45.1552" rx="14.111" ry="14.111" style="stroke: #A80036; stroke-width: 1.6933207902163687;" width="248.3537" x="564.4403" y="539.186"></rect><text fill="#000000" font-family="sans-serif" font-size="15.8043" lengthAdjust="spacingAndGlyphs" textLength="237.0649" x="570.0847" y="569.0831">使用目录列表指针来读取所有文件</text><rect fill="#FEFECE" filter="url(#f15tg35ubajram)" height="45.1552" rx="14.111" ry="14.111" style="stroke: #A80036; stroke-width: 1.6933207902163687;" width="232.5494" x="572.3424" y="624.9809"></rect><text fill="#000000" font-family="sans-serif" font-size="15.8043" lengthAdjust="spacingAndGlyphs" textLength="221.2606" x="577.9868" y="654.878">调用获取文件信息函数保存结果</text><!--MD5=[de7710532f38979b40709f43a63a70ac]
link 打开目录 to 改变工作区--><path d="M688.6171,412.8157 C688.6171,423.3538 688.6171,436.1632 688.6171,447.3978 " fill="none" id="打开目录->改变工作区" style="stroke: #A80036; stroke-width: 1.1288805268109126;"></path><polygon fill="#A80036" points="688.6171,453.11,693.1326,442.95,688.6171,447.4656,684.1016,442.95,688.6171,453.11" style="stroke: #A80036; stroke-width: 1.1288805268109126;"></polygon><!--MD5=[e3fcd307c7136fc14c05e3197a9cc781]
link 改变工作区 to 使用目录列表指针来读取所有文件--><path d="M688.6171,498.6106 C688.6171,509.1487 688.6171,521.9581 688.6171,533.1927 " fill="none" id="改变工作区->使用目录列表指针来读取所有文件" style="stroke: #A80036; stroke-width: 1.1288805268109126;"></path><polygon fill="#A80036" points="688.6171,538.9049,693.1326,528.745,688.6171,533.2605,684.1016,528.745,688.6171,538.9049" style="stroke: #A80036; stroke-width: 1.1288805268109126;"></polygon><!--MD5=[0216c5e26383f2e97b24fae4ccddc0ab]
link 使用目录列表指针来读取所有文件 to 调用获取文件信息函数保存结果--><path d="M688.6171,584.4053 C688.6171,594.9441 688.6171,607.7528 688.6171,618.9879 " fill="none" id="使用目录列表指针来读取所有文件->调用获取文件信息函数保存结果" style="stroke: #A80036; stroke-width: 1.1288805268109126;"></path><polygon fill="#A80036" points="688.6171,624.6992,693.1326,614.5393,688.6171,619.0548,684.1016,614.5393,688.6171,624.6992" style="stroke: #A80036; stroke-width: 1.1288805268109126;"></polygon><rect fill="#FEFECE" filter="url(#f15tg35ubajram)" height="367.0218" rx="14.111" ry="14.111" style="stroke: #A80036; stroke-width: 1.6933207902163687;" width="266.4158" x="870.3669" y="320.0476"></rect><rect fill="#FFFFFF" height="327.3754" rx="14.111" ry="14.111" style="stroke: #FFFFFF; stroke-width: 1.1288805268109126;" width="259.6425" x="873.7535" y="356.3073"></rect><line style="stroke: #A80036; stroke-width: 1.6933207902163687;" x1="870.3669" x2="1136.7827" y1="352.9207" y2="352.9207"></line><text fill="#000000" font-family="sans-serif" font-size="15.8043" lengthAdjust="spacingAndGlyphs" textLength="20.3198" x="993.4149" y="343.8037">_R</text><rect fill="#FEFECE" filter="url(#f15tg35ubajram)" height="45.1552" rx="14.111" ry="14.111" style="stroke: #A80036; stroke-width: 1.6933207902163687;" width="169.3321" x="906.4911" y="367.5961"></rect><text fill="#000000" font-family="sans-serif" font-size="15.8043" lengthAdjust="spacingAndGlyphs" textLength="158.0433" x="912.1355" y="397.4933">得到当前递归层的路径</text><rect fill="#FEFECE" filter="url(#f15tg35ubajram)" height="45.1552" rx="14.111" ry="14.111" style="stroke: #A80036; stroke-width: 1.6933207902163687;" width="153.5278" x="914.3932" y="453.3911"></rect><text fill="#000000" font-family="sans-serif" font-size="15.8043" lengthAdjust="spacingAndGlyphs" textLength="142.2389" x="920.0376" y="483.2882">调用文件夹显示方法</text><rect fill="#FEFECE" filter="url(#f15tg35ubajram)" height="45.1552" rx="14.111" ry="14.111" style="stroke: #A80036; stroke-width: 1.6933207902163687;" width="216.7451" x="882.7846" y="539.186"></rect><text fill="#000000" font-family="sans-serif" font-size="15.8043" lengthAdjust="spacingAndGlyphs" textLength="205.4563" x="888.429" y="569.0831">挑出所有的该路径下的文件夹</text><rect fill="#FEFECE" filter="url(#f15tg35ubajram)" height="45.1552" rx="14.111" ry="14.111" style="stroke: #A80036; stroke-width: 1.6933207902163687;" width="169.3321" x="906.4911" y="624.9809"></rect><text fill="#000000" font-family="sans-serif" font-size="15.8043" lengthAdjust="spacingAndGlyphs" textLength="158.0433" x="912.1355" y="654.878">对这些文件夹进行递归</text><!--MD5=[671330faca258a2c523290405c9adc42]
link 得到当前递归层的路径 to 调用文件夹显示方法--><path d="M991.1571,412.8157 C991.1571,423.3538 991.1571,436.1632 991.1571,447.3978 " fill="none" id="得到当前递归层的路径->调用文件夹显示方法" style="stroke: #A80036; stroke-width: 1.1288805268109126;"></path><polygon fill="#A80036" points="991.1571,453.11,995.6726,442.95,991.1571,447.4656,986.6416,442.95,991.1571,453.11" style="stroke: #A80036; stroke-width: 1.1288805268109126;"></polygon><!--MD5=[f277f13eb9919056cec05167f5304921]
link 调用文件夹显示方法 to 挑出所有的该路径下的文件夹--><path d="M991.1571,498.6106 C991.1571,509.1487 991.1571,521.9581 991.1571,533.1927 " fill="none" id="调用文件夹显示方法->挑出所有的该路径下的文件夹" style="stroke: #A80036; stroke-width: 1.1288805268109126;"></path><polygon fill="#A80036" points="991.1571,538.9049,995.6726,528.745,991.1571,533.2605,986.6416,528.745,991.1571,538.9049" style="stroke: #A80036; stroke-width: 1.1288805268109126;"></polygon><!--MD5=[aef494ffeda501b2c4bbcd51e6ad8f77]
link 挑出所有的该路径下的文件夹 to 对这些文件夹进行递归--><path d="M991.1571,584.4053 C991.1571,594.9441 991.1571,607.7528 991.1571,618.9879 " fill="none" id="挑出所有的该路径下的文件夹->对这些文件夹进行递归" style="stroke: #A80036; stroke-width: 1.1288805268109126;"></path><polygon fill="#A80036" points="991.1571,624.6992,995.6726,614.5393,991.1571,619.0548,986.6416,614.5393,991.1571,624.6992" style="stroke: #A80036; stroke-width: 1.1288805268109126;"></polygon><!--MD5=[294873b3588d803e3bf6f404386fef8a]
link *start*main to 读取参数--><path d="M225.7761,193.8048 C225.7761,202.7907 225.7761,216.2176 225.7761,228.2707 " fill="none" id="*start*main->读取参数" style="stroke: #A80036; stroke-width: 1.1288805268109126;"></path><polygon fill="#A80036" points="225.7761,234.0517,230.2916,223.8918,225.7761,228.4073,221.2606,223.8918,225.7761,234.0517" style="stroke: #A80036; stroke-width: 1.1288805268109126;"></polygon><!--MD5=[816240ceb3114a74d0c0304327329ecc]
link 读取参数 to 设置参数--><path d="M263.1883,256.8302 C267.8134,256.8302 272.4395,256.8302 277.0645,256.8302 " fill="none" id="读取参数->设置参数" style="stroke: #A80036; stroke-width: 1.1288805268109126;"></path><polygon fill="#A80036" points="282.9246,256.8302,272.7646,252.3147,277.2802,256.8302,272.7646,261.3458,282.9246,256.8302" style="stroke: #A80036; stroke-width: 1.1288805268109126;"></polygon><!--MD5=[5bb80417ee9b61dbb5bd9b6922f6e1ad]
link 设置参数 to 确定路径--><path d="M358.0143,256.8302 C362.6393,256.8302 367.2655,256.8302 371.8905,256.8302 " fill="none" id="设置参数->确定路径" style="stroke: #A80036; stroke-width: 1.1288805268109126;"></path><polygon fill="#A80036" points="377.7505,256.8302,367.5906,252.3147,372.1061,256.8302,367.5906,261.3458,377.7505,256.8302" style="stroke: #A80036; stroke-width: 1.1288805268109126;"></polygon><!--MD5=[56f1df92b81c93098732712cf38b5a19]
link 确定路径 to 根据含有不同的参数来执行--><path d="M452.7782,256.8302 C457.419,256.8302 462.0598,256.8302 466.7007,256.8302 " fill="none" id="确定路径->根据含有不同的参数来执行" style="stroke: #A80036; stroke-width: 1.1288805268109126;"></path><polygon fill="#A80036" points="472.5799,256.8302,462.4199,252.3147,466.9355,256.8302,462.4199,261.3458,472.5799,256.8302" style="stroke: #A80036; stroke-width: 1.1288805268109126;"></polygon><!--MD5=[83050019e85dfcf6281c973c98a65915]
link 根据含有不同的参数来执行 to _a--><path d="M584.7917,279.6483 C589.734,289.1162 596.0241,301.1682 603.1112,314.7475 " fill="none" id="根据含有不同的参数来执行->_a" style="stroke: #A80036; stroke-width: 1.1288805268109126;"></path><polygon fill="#A80036" points="605.7573,319.8173,605.0609,308.7209,603.1463,314.813,597.0542,312.8984,605.7573,319.8173" style="stroke: #A80036; stroke-width: 1.1288805268109126;"></polygon><!--MD5=[021e8edee1fe3eb52ee373a78233272c]
link 根据含有不同的参数来执行 to _l--><path d="M476.4711,279.4112 C426.569,291.5275 371.737,306.8419 349.953,320.0476 C287.2843,358.0378 233.0213,425.4026 203.4096,466.7501 " fill="none" id="根据含有不同的参数来执行->_l" style="stroke: #A80036; stroke-width: 1.1288805268109126;"></path><polygon fill="#A80036" points="199.9214,471.6596,209.4868,465.9926,203.1905,467.0583,202.1248,460.7619,199.9214,471.6596" style="stroke: #A80036; stroke-width: 1.1288805268109126;"></polygon><!--MD5=[2cfe4c542ae1d81263f7f3f13aa69009]
link 根据含有不同的参数来执行 to _R--><path d="M674.0275,262.9183 C732.1242,269.7175 804.4967,285.2114 860.207,320.0476 C862.0211,321.1821 863.8205,322.3471 865.6075,323.5426 " fill="none" id="根据含有不同的参数来执行->_R" style="stroke: #A80036; stroke-width: 1.1288805268109126;"></path><polygon fill="#A80036" points="870.3037,326.7746,864.494,317.295,865.6539,323.5747,859.3742,324.7347,870.3037,326.7746" style="stroke: #A80036; stroke-width: 1.1288805268109126;"></polygon><!--MD5=[2f852ec3aab0dbc829ad3bc8432bcefe]
link 根据含有不同的参数来执行 to _C--><path d="M562.1509,279.6483 C540.1626,321.777 491.483,415.044 464.6179,466.5142 " fill="none" id="根据含有不同的参数来执行->_C" style="stroke: #A80036; stroke-width: 1.1288805268109126;"></path><polygon fill="#A80036" points="461.93,471.6652,470.6331,464.7464,464.541,466.661,462.6264,460.5689,461.93,471.6652" style="stroke: #A80036; stroke-width: 1.1288805268109126;"></polygon><!--MD5=[8596d6de4190d164c90709a2a5a33250]
link _a to 显示--><path d="M605.8262,687.0331 C598.8598,700.3787 592.5618,712.4464 587.4119,722.3128 " fill="none" id="_a->显示" style="stroke: #A80036; stroke-width: 1.1288805268109126;"></path><polygon fill="#A80036" points="584.6721,727.5621,593.3752,720.6433,587.283,722.5579,585.3684,716.4658,584.6721,727.5621" style="stroke: #A80036; stroke-width: 1.1288805268109126;"></polygon><!--MD5=[ccc2d44adaf007bb362b23171a6a324b]
link _l to 显示--><path d="M199.9214,535.3217 C228.6231,576.0528 284.7364,647.3992 349.953,686.9337 C410.4361,723.5986 493.1221,739.1772 539.0867,745.3465 " fill="none" id="_l->显示" style="stroke: #A80036; stroke-width: 1.1288805268109126;"></path><polygon fill="#A80036" points="545.0506,746.1216,535.5573,740.3344,539.4533,745.3942,534.3935,749.2902,545.0506,746.1216" style="stroke: #A80036; stroke-width: 1.1288805268109126;"></polygon><!--MD5=[cc89146af2f6e20c142875680eabea1e]
link _R to 显示--><path d="M870.3037,680.2067 C866.987,682.5525 863.6207,684.799 860.207,686.9337 C779.7889,737.2208 664.6476,747.2021 607.8491,748.9068 " fill="none" id="_R->显示" style="stroke: #A80036; stroke-width: 1.1288805268109126;"></path><polygon fill="#A80036" points="601.8773,749.0617,612.15,753.3144,607.5199,748.9165,611.9178,744.2864,601.8773,749.0617" style="stroke: #A80036; stroke-width: 1.1288805268109126;"></polygon><!--MD5=[c72fbfa7c1b13ee4e5d67292f1278044]
link _C to 显示--><path d="M462.0643,535.5734 C487.2531,583.8342 535.4675,676.2105 559.349,721.9651 " fill="none" id="_C->显示" style="stroke: #A80036; stroke-width: 1.1288805268109126;"></path><polygon fill="#A80036" points="562.1373,727.3081,561.4382,716.212,559.5251,722.3046,553.4325,720.3915,562.1373,727.3081" style="stroke: #A80036; stroke-width: 1.1288805268109126;"></polygon><!--MD5=[a1ec401e8ef4b59c1a31657f8e49fdc0]
link 显示 to 结束--><path d="M573.4713,772.7928 C573.4713,783.3315 573.4713,796.1403 573.4713,807.3753 " fill="none" id="显示->结束" style="stroke: #A80036; stroke-width: 1.1288805268109126;"></path><polygon fill="#A80036" points="573.4713,813.0867,577.9868,802.9268,573.4713,807.4423,568.9558,802.9268,573.4713,813.0867" style="stroke: #A80036; stroke-width: 1.1288805268109126;"></polygon><!--MD5=[3a49557cc214808664416704f4135b4e]
link *start to main--><path d="M593.2267,32.0365 C593.2267,44.0918 593.2267,65.7313 593.2267,93.2512 " fill="none" id="*start->main" style="stroke: #A80036; stroke-width: 1.1288805268109126;"></path><polygon fill="#A80036" points="593.2267,99.2117,597.7422,89.0517,593.2267,93.5673,588.7112,89.0517,593.2267,99.2117" style="stroke: #A80036; stroke-width: 1.1288805268109126;"></polygon><!--MD5=[919badb55f801b9719bee74dd4adc684]
link main to *end--><path d="M593.2267,876.057 C593.2267,902.4987 593.2267,924.0569 593.2267,937.7263 " fill="none" id="main->*end" style="stroke: #A80036; stroke-width: 1.1288805268109126;"></path><polygon fill="#A80036" points="593.2267,943.4409,597.7422,933.281,593.2267,937.7965,588.7112,933.281,593.2267,943.4409" style="stroke: #A80036; stroke-width: 1.1288805268109126;"></polygon><!--MD5=[6810fc03d244b9c7d2b536fdf59ee62d]
@startuml
hide empty description
scale 1200 width
[*] - -> main
main - -> [*]

main: 主程序


state main{
    [*] - -> 读取参数
    读取参数 -> 设置参数
    设置参数 -> 确定路径
    确定路径 -> 根据含有不同的参数来执行 
    根据含有不同的参数来执行 - -> _a
    根据含有不同的参数来执行 - -> _l
    根据含有不同的参数来执行 - -> _R
    根据含有不同的参数来执行 - -> _C
    _a - -> 显示
    _l - -> 显示
    _R - -> 显示
    _C - -> 显示
    显示 - -> 结束

    state _a{
        打开目录 - -> 改变工作区
        改变工作区 - -> 使用目录列表指针来读取所有文件
        使用目录列表指针来读取所有文件 - -> 调用获取文件信息函数保存结果
    }
    _l: 设置参数为真，当读取文件信息时将读取所有信息
    state _R{
        得到当前递归层的路径 - -> 调用文件夹显示方法
        调用文件夹显示方法 - -> 挑出所有的该路径下的文件夹
        挑出所有的该路径下的文件夹 - -> 对这些文件夹进行递归
    }
    _C: 当显示时，调用排序函数

}
@enduml

PlantUML version 1.2019.11(Sun Sep 22 18:02:15 CST 2019)
(MIT source distribution)
Java Runtime: Java(TM) SE Runtime Environment
JVM: Java HotSpot(TM) 64-Bit Server VM
Java Version: 1.8.0_211-b12
Operating System: Windows 10
Default Encoding: GBK
Language: zh
Country: CN
--></g></svg>